<svg width="1024" height="777" viewBox="0 0 1024 777" fill="none" xmlns="http://www.w3.org/2000/svg">
<g clip-path="url(#clip0_260_31867)">
<rect width="1024" height="777" fill="white"/>
<g clip-path="url(#clip1_260_31867)">
<path d="M0 0L690 2.69489e-06L1440 0V777H0V0Z" fill="url(#paint0_radial_260_31867)"/>
</g>
<g clip-path="url(#clip2_260_31867)">
<rect width="840.561" height="840.561" transform="matrix(-0.660032 0.751238 0.660032 0.751237 -12.8008 334.18)" fill="url(#paint1_linear_260_31867)"/>
<rect x="6.05681e-08" y="0.76338" width="839.544" height="839.544" transform="matrix(-0.660032 0.751238 0.660032 0.751237 -13.3046 334.37)" stroke="url(#paint2_linear_260_31867)" stroke-opacity="0.56" stroke-width="1.01616"/>
<rect width="1384.2" height="1384.2" transform="matrix(0.660032 0.751238 -0.660032 0.751237 999.402 -74)" fill="url(#paint3_linear_260_31867)"/>
<rect x="-3.0284e-08" y="0.76338" width="1383.18" height="1383.18" transform="matrix(0.660032 0.751238 -0.660032 0.751237 999.906 -73.8101)" stroke="url(#paint4_linear_260_31867)" stroke-opacity="0.56" stroke-width="1.01616"/>
</g>
</g>
<defs>
<radialGradient id="paint0_radial_260_31867" cx="0" cy="0" r="1" gradientUnits="userSpaceOnUse" gradientTransform="translate(720 -131) rotate(90) scale(908 2169.86)">
<stop offset="0.423579" stop-color="#1877FF"/>
<stop offset="0.7" stop-color="#83C4FF"/>
</radialGradient>
<linearGradient id="paint1_linear_260_31867" x1="256.445" y1="-1.34708" x2="129.332" y2="1098.52" gradientUnits="userSpaceOnUse">
<stop stop-color="white" stop-opacity="0.4"/>
<stop offset="1" stop-color="white" stop-opacity="0"/>
</linearGradient>
<linearGradient id="paint2_linear_260_31867" x1="236.212" y1="31.5082" x2="389.03" y2="56.5956" gradientUnits="userSpaceOnUse">
<stop stop-color="white"/>
<stop offset="1" stop-color="white" stop-opacity="0"/>
</linearGradient>
<linearGradient id="paint3_linear_260_31867" x1="198.827" y1="538.659" x2="348.119" y2="1074.76" gradientUnits="userSpaceOnUse">
<stop stop-color="white" stop-opacity="0.4"/>
<stop offset="1" stop-color="white" stop-opacity="0"/>
</linearGradient>
<linearGradient id="paint4_linear_260_31867" x1="388.984" y1="51.8862" x2="640.637" y2="93.1991" gradientUnits="userSpaceOnUse">
<stop stop-color="white"/>
<stop offset="1" stop-color="white" stop-opacity="0"/>
</linearGradient>
<clipPath id="clip0_260_31867">
<rect width="1024" height="777" fill="white"/>
</clipPath>
<clipPath id="clip1_260_31867">
<rect width="1440" height="777" fill="white"/>
</clipPath>
<clipPath id="clip2_260_31867">
<rect width="2260.96" height="943" fill="white" transform="translate(-418 -90)"/>
</clipPath>
</defs>
</svg>
