<svg width="1920" height="1036" viewBox="0 0 1920 1036" fill="none" xmlns="http://www.w3.org/2000/svg">
<g clip-path="url(#clip0_260_33433)">
<path d="M0 0L920 3.59318e-06L1920 0V1036H0V0Z" fill="url(#paint0_radial_260_33433)"/>
<g clip-path="url(#clip1_260_33433)">
<rect width="1102.92" height="1102.92" transform="matrix(-0.660032 0.751238 0.660032 0.751237 531.672 456.577)" fill="url(#paint1_linear_260_33433)"/>
<rect x="7.94729e-08" y="1.00165" width="1101.59" height="1101.59" transform="matrix(-0.660032 0.751238 0.660032 0.751237 531.011 456.826)" stroke="url(#paint2_linear_260_33433)" stroke-opacity="0.56" stroke-width="1.33333"/>
<rect width="1816.24" height="1816.24" transform="matrix(0.660032 0.751238 -0.660032 0.751237 1859.81 -79.2982)" fill="url(#paint3_linear_260_33433)"/>
<rect x="-3.97364e-08" y="1.00165" width="1814.91" height="1814.91" transform="matrix(0.660032 0.751238 -0.660032 0.751237 1860.47 -79.049)" stroke="url(#paint4_linear_260_33433)" stroke-opacity="0.56" stroke-width="1.33333"/>
</g>
</g>
<defs>
<radialGradient id="paint0_radial_260_33433" cx="0" cy="0" r="1" gradientUnits="userSpaceOnUse" gradientTransform="translate(960 -174.667) rotate(90) scale(1210.67 2893.15)">
<stop offset="0.423579" stop-color="#1877FF"/>
<stop offset="0.7" stop-color="#83C4FF"/>
</radialGradient>
<linearGradient id="paint1_linear_260_33433" x1="336.488" y1="-1.76754" x2="169.7" y2="1441.4" gradientUnits="userSpaceOnUse">
<stop stop-color="white" stop-opacity="0.4"/>
<stop offset="1" stop-color="white" stop-opacity="0"/>
</linearGradient>
<linearGradient id="paint2_linear_260_33433" x1="309.94" y1="41.3426" x2="510.456" y2="74.2605" gradientUnits="userSpaceOnUse">
<stop stop-color="white"/>
<stop offset="1" stop-color="white" stop-opacity="0"/>
</linearGradient>
<linearGradient id="paint3_linear_260_33433" x1="260.886" y1="706.788" x2="456.775" y2="1410.22" gradientUnits="userSpaceOnUse">
<stop stop-color="white" stop-opacity="0.4"/>
<stop offset="1" stop-color="white" stop-opacity="0"/>
</linearGradient>
<linearGradient id="paint4_linear_260_33433" x1="510.395" y1="68.0812" x2="840.596" y2="122.289" gradientUnits="userSpaceOnUse">
<stop stop-color="white"/>
<stop offset="1" stop-color="white" stop-opacity="0"/>
</linearGradient>
<clipPath id="clip0_260_33433">
<rect width="1920" height="1036" fill="white"/>
</clipPath>
<clipPath id="clip1_260_33433">
<rect width="2966.67" height="1237.33" fill="white" transform="translate(0 -100)"/>
</clipPath>
</defs>
</svg>
