<svg width="120" height="156" viewBox="0 0 120 156" fill="none" xmlns="http://www.w3.org/2000/svg">
<rect width="120" height="156" rx="12" fill="white"/>
<path d="M22.9496 27.0632V28.3824C22.2152 28.6272 21.44 28.8448 20.624 29.0624V31.9048C20.624 32.7752 20.1616 33.224 19.2504 33.224H17.7272L17.4416 31.9864C17.9176 32.0408 18.3664 32.068 18.8016 32.068C19.1416 32.068 19.3184 31.9048 19.3184 31.5784V29.3616C18.5024 29.5384 17.6728 29.7016 16.8024 29.8376L16.6256 28.5456C17.564 28.396 18.4616 28.2328 19.3184 28.056V25.6216H16.6256V24.384H19.3184V22.9424C18.6384 23.0784 17.9448 23.1872 17.224 23.296L16.952 22.072C18.856 21.868 20.5424 21.4736 22.0112 20.8752L22.46 22.0856C21.8752 22.2896 21.2632 22.48 20.624 22.6568V24.384H23.5616C23.48 23.3232 23.4392 22.1536 23.4392 20.8752H24.7448C24.7448 22.208 24.7856 23.3776 24.8672 24.384H28.9744V25.6216H24.976C25.0576 26.5192 25.18 27.2672 25.3432 27.8656C25.3976 28.124 25.4656 28.3552 25.5336 28.5728C26.1184 27.8656 26.6352 27.0632 27.0704 26.1656L28.1856 26.7504C27.5736 28.0016 26.8528 29.076 26.0096 29.9736C26.1728 30.3408 26.3224 30.6536 26.4856 30.8984C26.8936 31.5104 27.2064 31.8232 27.424 31.8232C27.6008 31.8232 27.7776 31.116 27.9544 29.7016L29.0968 30.3C28.7568 32.2312 28.2536 33.2104 27.6008 33.2104C27.016 33.2104 26.404 32.8024 25.7648 32C25.5064 31.6736 25.2752 31.3064 25.0712 30.8712C24.1328 31.66 23.0856 32.2856 21.916 32.7344L21.1952 31.6192C22.4736 31.1568 23.5888 30.4904 24.5408 29.62C24.3776 29.1712 24.2416 28.7088 24.1192 28.2192C23.9288 27.4848 23.7792 26.6144 23.6704 25.6216H20.624V27.7568C21.44 27.5392 22.2152 27.308 22.9496 27.0632ZM26.2408 20.9976C27.2064 21.6096 28.0224 22.2216 28.7024 22.8336L27.764 23.7584C27.1928 23.16 26.404 22.5208 25.3704 21.8272L26.2408 20.9976ZM35.2168 23.092V32.5576H33.9792V31.8504H31.8304V32.952H30.5928V23.092H31.8848C32.1296 22.3576 32.32 21.6096 32.4288 20.8208L33.7208 20.9976C33.5848 21.7456 33.3808 22.4392 33.1224 23.092H35.2168ZM31.8304 30.6536H33.9792V27.9744H31.8304V30.6536ZM31.8304 26.8184H33.9792V24.316H31.8304V26.8184ZM37.6648 26.356C38.5624 27.4712 39.256 28.4368 39.732 29.28L38.712 30.0008C38.1952 29.1032 37.488 28.1104 36.6176 27.0088L37.6648 26.356ZM42.2344 23.1056C42.2344 27.7976 42.1664 30.6944 42.0304 31.7824C41.8944 32.7616 41.2416 33.2512 40.0856 33.2512C39.8136 33.2512 39.324 33.224 38.644 33.1832L38.3312 32C38.9296 32.0272 39.4464 32.0544 39.8816 32.0544C40.4256 32.0544 40.7384 31.7688 40.82 31.1976C40.9016 30.5176 40.9424 28.2328 40.9696 24.3568H37.556C37.1752 25.1728 36.74 25.9208 36.2232 26.6008L35.448 25.5808C36.3456 24.2752 36.9712 22.684 37.2976 20.8072L38.576 20.9704C38.44 21.732 38.2496 22.4392 38.032 23.1056H42.2344ZM44.22 29.8104L45.24 29.9464C45.1856 31.1568 45.0632 32.2312 44.9 33.1696L43.8256 32.8296C44.0432 31.9456 44.1656 30.9392 44.22 29.8104ZM46.6136 29.7016C46.7496 30.5448 46.872 31.4696 46.9808 32.476L45.8928 32.7344C45.8384 31.6736 45.7568 30.7216 45.6616 29.892L46.6136 29.7016ZM47.7016 26.2064C47.9736 26.9952 48.2048 27.8928 48.4224 28.8992L47.4296 29.1576L47.2936 28.5184C46.1784 28.872 45.1176 29.1032 44.1112 29.2256L43.7984 28.1784C44.0024 28.0968 44.1792 27.988 44.3288 27.852C44.7096 27.4304 45.1992 26.7232 45.7704 25.7168C45.1992 25.7984 44.628 25.8936 44.0432 25.9752L43.744 24.928C43.9344 24.8464 44.0976 24.7104 44.2336 24.4928C44.7912 23.4048 45.2808 22.1808 45.6888 20.848L46.8448 21.3104C46.2736 22.752 45.716 23.9216 45.1448 24.8192C45.5392 24.7648 45.9472 24.7104 46.3552 24.6288C46.6136 24.1256 46.8856 23.5816 47.1712 23.0104L48.2864 23.432C47.1712 25.54 46.2328 27.0632 45.4848 27.988C46.0016 27.8928 46.532 27.7704 47.076 27.6208C46.9672 27.24 46.872 26.8728 46.7632 26.5056L47.7016 26.2064ZM47.9328 29.3344C48.1504 29.9192 48.3408 30.5448 48.504 31.2112C48.6944 30.6128 48.844 30.0008 48.9528 29.3616L50.0136 29.5928C49.7824 30.8848 49.456 32.0136 49.048 32.9792L48.0688 32.3672C48.1912 32.068 48.3136 31.7552 48.4224 31.456L47.5792 31.8504C47.416 31.0072 47.2256 30.2728 47.0216 29.6472L47.9328 29.3344ZM48.8304 21.8952H50.9928C51.156 21.5552 51.292 21.2016 51.3736 20.848L52.6384 21.0112C52.5432 21.324 52.4208 21.6232 52.2712 21.8952H55.6712V28.1648H52.448C53.0192 28.9672 53.468 29.6608 53.7672 30.2456L52.8696 30.8576C52.5432 30.2048 52.108 29.484 51.564 28.6952L52.4072 28.1648H48.8304V21.8952ZM54.5424 27.1584V22.9016H49.9592V27.1584H51.3736L50.8704 26.5056C51.36 26.1656 51.8224 25.812 52.244 25.4448C52.0808 25.2952 51.9176 25.1592 51.7544 25.0368C51.36 25.3632 50.952 25.676 50.5168 25.9616L49.9728 25.2544C50.3536 25.0096 50.7072 24.7512 51.0336 24.4928C50.7888 24.3024 50.5304 24.1256 50.2856 23.9624L50.8568 23.2824C51.156 23.4728 51.4416 23.6768 51.7272 23.8808C51.9992 23.6088 52.2576 23.3232 52.5024 23.024L53.1416 23.5952C52.8968 23.8944 52.6656 24.1664 52.4208 24.4112C52.584 24.5472 52.7472 24.6696 52.8968 24.8056C53.196 24.4792 53.4816 24.1528 53.74 23.8264L54.3656 24.3976C54.1072 24.7512 53.8352 25.0776 53.5496 25.3904C53.808 25.6352 54.0528 25.88 54.284 26.1384L53.672 26.8864C53.4272 26.5872 53.1688 26.3152 52.8968 26.0432C52.4616 26.4376 51.9856 26.8048 51.496 27.1584H54.5424ZM55.1816 29.0216C55.644 29.9056 56.0384 30.8576 56.3648 31.8776L55.3584 32.34C54.9912 31.2248 54.5832 30.232 54.1344 29.3616L55.1816 29.0216ZM53.128 33.1696H51.4552C50.6936 33.1696 50.3264 32.7616 50.3264 31.9728V29.2256H51.4824V31.7416C51.4824 31.932 51.5912 32.0408 51.836 32.0408H52.924C53.0872 32.0408 53.2232 31.9864 53.3048 31.8912C53.4 31.7688 53.468 31.4016 53.5088 30.7896L54.5832 31.1432C54.5016 32.1224 54.3384 32.7072 54.1072 32.9112C53.8896 33.0744 53.5632 33.1696 53.128 33.1696ZM63.7224 22.6024C63.3008 23.16 62.784 23.6632 62.172 24.0984L61.4648 23.16C62.4168 22.5072 63.0696 21.7184 63.4232 20.7664L64.6064 20.9024C64.5248 21.12 64.4432 21.3376 64.348 21.5416H69.1216V22.4392C68.768 23.16 68.3736 23.7584 67.952 24.2208L67.068 23.5272C67.3264 23.2552 67.5576 22.956 67.7752 22.6024H63.7224ZM57.8744 21.5552H61.2472V22.6432H57.8744V21.5552ZM57.6024 24.0032H61.5328V25.1048H57.6024V24.0032ZM65.1096 22.7248L66.1976 22.9424C66.1432 23.1328 66.0888 23.3096 66.0208 23.4864C66.9864 24.384 68.2104 24.928 69.6792 25.1048L69.1488 26.1656C68.7816 26.1112 68.428 26.0296 68.1016 25.9208V31.4968H65.4088C66.864 31.728 68.2648 32.0544 69.6112 32.476L69.1896 33.496C67.748 32.9792 66.2248 32.5848 64.6472 32.3128L65.0688 31.4968H61.9408L62.4984 32.2176C61.492 32.748 60.0504 33.1696 58.1736 33.4824L57.5888 32.4896C59.3296 32.2176 60.6624 31.8912 61.6144 31.4968H59.112V25.88H62.3896L61.8728 25.0912C63.6952 24.7648 64.7696 23.976 65.1096 22.7248ZM63.0424 25.88H67.9792C67.0408 25.5536 66.2248 25.0504 65.5176 24.3568C64.9464 25.064 64.1304 25.5808 63.0424 25.88ZM66.8368 30.4632V29.7968H60.3768V30.4632H66.8368ZM60.3768 28.9536H66.8368V28.3552H60.3768V28.9536ZM60.3768 27.4984H66.8368V26.8592H60.3768V27.4984ZM74.1536 22.7792H71.692V21.7184H76.8192C76.6832 21.4464 76.5472 21.188 76.4112 20.9568L77.7304 20.7392C77.8664 21.0248 78.0024 21.3512 78.1384 21.7184H82.7352V22.7792H80.6136L81.1304 23.1328C80.532 23.4592 79.8928 23.7448 79.2264 24.0032C80.1784 24.2752 81.0624 24.5472 81.8648 24.8192L81.2528 25.4312H82.8032V26.5192H73.2424V27.9336C73.2288 28.3824 73.2016 28.8176 73.1744 29.2392C73.9768 28.6136 74.5888 27.784 74.9968 26.764L76.0032 27.172L75.7448 27.7704H77.7848V26.8048H79.036V27.7704H82.4496V28.8992H79.036V29.892H82.1776V31.0072H79.036V31.9864H83.1432V33.1016H73.2696V31.9864H77.7848V31.0072H74.6568V29.892H77.7848V28.8992H75.0784C74.752 29.3616 74.3848 29.7424 73.9904 30.0688L73.1608 29.348C72.9976 30.98 72.5896 32.34 71.9368 33.428L70.9848 32.5712C71.6376 31.456 71.9776 29.9192 72.0048 27.9336V25.4312H80.7088C79.8656 25.1184 78.8864 24.8056 77.7984 24.4928C76.4248 24.9008 74.9288 25.1864 73.324 25.3768L72.7256 24.5744C73.9496 24.4384 75.092 24.248 76.1256 24.0304C75.3096 23.8128 74.4392 23.5952 73.5144 23.3776L74.1536 22.7792ZM79.8928 22.7792H74.4392C75.636 23.0512 76.7376 23.3232 77.7576 23.6088C78.5464 23.364 79.2672 23.0784 79.8928 22.7792Z" fill="#041C43"/>
<path d="M16.7945 46.48L21.1945 53.52H12.3945L16.7945 46.48Z" fill="#E74622"/>
<path d="M26.6673 54V46.7242H23.8531V45.992H30.3281V46.7242H27.5139V54H26.6673ZM33.4437 54L30.7438 45.992H31.6133L34.1415 53.531H33.7068L36.3151 45.992H37.093L39.667 53.531H39.2552L41.8063 45.992H42.6185L39.9187 54H39.0264L36.5668 46.85H36.7956L34.3245 54H33.4437ZM44.1707 54V45.992H47.4311C48.2853 45.992 49.0327 46.1636 49.6734 46.5068C50.3216 46.8424 50.825 47.3114 51.1834 47.9139C51.5419 48.5164 51.7211 49.2105 51.7211 49.996C51.7211 50.7815 51.5419 51.4756 51.1834 52.0781C50.825 52.6806 50.3216 53.1534 49.6734 53.4966C49.0327 53.8322 48.2853 54 47.4311 54H44.1707ZM45.0173 53.2678H47.3854C48.0946 53.2678 48.7086 53.1306 49.2272 52.856C49.7534 52.5738 50.1615 52.1887 50.4513 51.7006C50.7411 51.2048 50.886 50.6366 50.886 49.996C50.886 49.3477 50.7411 48.7795 50.4513 48.2914C50.1615 47.8033 49.7534 47.422 49.2272 47.1474C48.7086 46.8653 48.0946 46.7242 47.3854 46.7242H45.0173V53.2678ZM57.314 54L60.7689 46.3581L61.0206 46.7242H56.0671L56.4904 46.3238V48.2228H55.6781V45.992H61.5583V46.5754L58.2064 54H57.314ZM64.934 54.0686C64.3543 54.0686 63.8052 53.9771 63.2866 53.7941C62.7756 53.6034 62.3638 53.3517 62.0511 53.039L62.4515 52.387C62.7108 52.6539 63.0578 52.8751 63.4925 53.0505C63.9349 53.2259 64.4154 53.3136 64.934 53.3136C65.5975 53.3136 66.1047 53.1687 66.4555 52.8789C66.8139 52.5891 66.9932 52.2001 66.9932 51.712C66.9932 51.2239 66.8178 50.8349 66.4669 50.5451C66.1237 50.2553 65.5784 50.1104 64.831 50.1104H64.259V49.5041L66.73 46.4038L66.8444 46.7242H62.3828V45.992H67.5308V46.5754L65.0598 49.6757L64.6594 49.4126H64.9683C65.9292 49.4126 66.6462 49.6261 67.119 50.0532C67.5995 50.4803 67.8397 51.0294 67.8397 51.7006C67.8397 52.1505 67.733 52.5547 67.5194 52.9132C67.3059 53.2717 66.9817 53.5538 66.547 53.7598C66.1199 53.9657 65.5822 54.0686 64.934 54.0686ZM70.396 54V46.3352L70.7621 46.7242H68.5084V45.992H71.2197V54H70.396Z" fill="#E74622"/>
<path d="M79.3041 52.4213V47.5707H80.0248V52.4213H79.3041ZM77.1763 50.3392V49.6642H82.1527V50.3392H77.1763ZM86.8317 54.0686C86.214 54.0686 85.6648 53.9085 85.1844 53.5882C84.7039 53.2602 84.3264 52.795 84.0518 52.1925C83.7772 51.5823 83.64 50.8502 83.64 49.996C83.64 49.1418 83.7772 48.4135 84.0518 47.811C84.3264 47.2008 84.7039 46.7356 85.1844 46.4153C85.6648 46.0873 86.214 45.9234 86.8317 45.9234C87.4495 45.9234 87.9986 46.0873 88.4791 46.4153C88.9596 46.7356 89.3371 47.2008 89.6116 47.811C89.8938 48.4135 90.0349 49.1418 90.0349 49.996C90.0349 50.8502 89.8938 51.5823 89.6116 52.1925C89.3371 52.795 88.9596 53.2602 88.4791 53.5882C87.9986 53.9085 87.4495 54.0686 86.8317 54.0686ZM86.8317 53.3136C87.3046 53.3136 87.7164 53.1878 88.0672 52.9361C88.4181 52.6768 88.6926 52.3031 88.8909 51.815C89.0892 51.3192 89.1884 50.7129 89.1884 49.996C89.1884 49.2791 89.0892 48.6766 88.8909 48.1885C88.6926 47.6927 88.4181 47.319 88.0672 47.0674C87.7164 46.8081 87.3046 46.6784 86.8317 46.6784C86.3741 46.6784 85.9661 46.8081 85.6076 47.0674C85.2492 47.319 84.9708 47.6927 84.7725 48.1885C84.5742 48.6766 84.4751 49.2791 84.4751 49.996C84.4751 50.7129 84.5742 51.3192 84.7725 51.815C84.9708 52.3031 85.2492 52.6768 85.6076 52.9361C85.9661 53.1878 86.3741 53.3136 86.8317 53.3136ZM91.7094 54.0572C91.5416 54.0572 91.3967 53.9962 91.2746 53.8742C91.1602 53.7521 91.103 53.6034 91.103 53.428C91.103 53.245 91.1602 53.0962 91.2746 52.9818C91.3967 52.8674 91.5416 52.8102 91.7094 52.8102C91.8771 52.8102 92.0182 52.8674 92.1326 52.9818C92.2547 53.0962 92.3157 53.245 92.3157 53.428C92.3157 53.6034 92.2547 53.7521 92.1326 53.8742C92.0182 53.9962 91.8771 54.0572 91.7094 54.0572ZM94.7775 54V46.3352L95.1436 46.7242H92.8899V45.992H95.6012V54H94.7775ZM98.9111 54V46.3352L99.2772 46.7242H97.0235V45.992H99.7348V54H98.9111ZM102.724 54L108.193 45.992H108.868L103.399 54H102.724ZM103.342 50.282C102.984 50.282 102.667 50.1943 102.393 50.0189C102.118 49.8358 101.905 49.5803 101.752 49.2524C101.607 48.9245 101.535 48.5431 101.535 48.1084C101.535 47.6737 101.607 47.2923 101.752 46.9644C101.905 46.6365 102.118 46.3848 102.393 46.2094C102.667 46.0263 102.984 45.9348 103.342 45.9348C103.701 45.9348 104.013 46.0263 104.28 46.2094C104.555 46.3848 104.768 46.6365 104.921 46.9644C105.073 47.2847 105.15 47.6661 105.15 48.1084C105.15 48.5431 105.073 48.9245 104.921 49.2524C104.768 49.5803 104.555 49.8358 104.28 50.0189C104.013 50.1943 103.701 50.282 103.342 50.282ZM103.342 49.7672C103.716 49.7672 104.013 49.6223 104.234 49.3325C104.463 49.035 104.578 48.627 104.578 48.1084C104.578 47.5898 104.463 47.1856 104.234 46.8958C104.013 46.5983 103.716 46.4496 103.342 46.4496C102.961 46.4496 102.66 46.5983 102.438 46.8958C102.217 47.1856 102.107 47.5898 102.107 48.1084C102.107 48.627 102.217 49.035 102.438 49.3325C102.66 49.6223 102.961 49.7672 103.342 49.7672ZM108.25 54.0572C107.899 54.0572 107.586 53.9695 107.312 53.7941C107.037 53.611 106.824 53.3555 106.671 53.0276C106.519 52.6997 106.442 52.3183 106.442 51.8836C106.442 51.4489 106.519 51.0675 106.671 50.7396C106.824 50.4117 107.037 50.16 107.312 49.9846C107.586 49.8015 107.899 49.71 108.25 49.71C108.616 49.71 108.932 49.8015 109.199 49.9846C109.474 50.16 109.684 50.4117 109.829 50.7396C109.981 51.0675 110.057 51.4489 110.057 51.8836C110.057 52.3183 109.981 52.6997 109.829 53.0276C109.684 53.3555 109.474 53.611 109.199 53.7941C108.932 53.9695 108.616 54.0572 108.25 54.0572ZM108.25 53.5424C108.624 53.5424 108.921 53.3975 109.142 53.1077C109.371 52.8102 109.485 52.4022 109.485 51.8836C109.485 51.365 109.371 50.9608 109.142 50.671C108.921 50.3735 108.624 50.2248 108.25 50.2248C107.876 50.2248 107.575 50.3735 107.346 50.671C107.125 50.9608 107.014 51.365 107.014 51.8836C107.014 52.4022 107.125 52.8102 107.346 53.1077C107.575 53.3975 107.876 53.5424 108.25 53.5424Z" fill="#E74622"/>
<path d="M31.2228 110.075L16 122.253V140.27H104V87.8095L96.988 91.7745H89.4502L83.9588 99.7045L77.4347 91.7745L71.4544 79.2695L63.2993 82.6245L55.5067 96.3495L49.7076 104.28L43.0023 96.3495L35.9346 91.7745L31.2228 110.075Z" fill="url(#paint0_linear_240_28722)"/>
<path d="M16 122.27L31.2228 109.854L35.9346 91.685L43.0023 96.2273L49.7076 104.101L55.5067 96.2273L63.2993 82.6005L71.4544 79.2695L77.4347 91.685L83.9588 99.5583L89.4502 91.685H96.9881L104 87.7484" stroke="#64A0F5" stroke-width="0.6528"/>
<defs>
<linearGradient id="paint0_linear_240_28722" x1="60" y1="79.2232" x2="60" y2="140.602" gradientUnits="userSpaceOnUse">
<stop stop-color="#96C8FA"/>
<stop offset="1" stop-color="#96C8FA" stop-opacity="0"/>
</linearGradient>
</defs>
</svg>
