<svg width="120" height="156" viewBox="0 0 120 156" fill="none" xmlns="http://www.w3.org/2000/svg">
<rect width="120" height="156" rx="12" fill="#0044AD"/>
<rect x="6" y="16.035" width="76.7261" height="14.9299" rx="7.46496" fill="white" fill-opacity="0.3"/>
<path d="M7.86719 23.5C7.86719 20.4079 10.3738 17.9013 13.4659 17.9013C16.558 17.9013 19.0646 20.4079 19.0646 23.5C19.0646 26.5921 16.558 29.0987 13.4659 29.0987C10.3738 29.0987 7.86719 26.5921 7.86719 23.5Z" fill="white"/>
<path d="M13.1252 22.1878H10.5848V21.5369H13.1252C13.0132 21.194 12.8803 20.8651 12.7263 20.5502L13.3702 20.3752C13.5451 20.7951 13.6781 21.18 13.7761 21.53L13.7551 21.5369H16.3445V22.1878H13.7971V23.6435H16.0085V24.2663H13.7971V25.9739H16.5894V26.6248H10.3398V25.9739H13.1252V24.2663H10.9207V23.6435H13.1252V22.1878Z" fill="#4C5466"/>
<path d="M23.0798 26L25.2614 20.0828H25.8272V21.0382H25.5935L23.8548 26H23.0798ZM24.0681 24.3064L24.2977 23.679H26.9713L27.2009 24.3064H24.0681ZM27.3978 26L25.6591 21.0382V20.0828H25.9913L28.1728 26H27.3978ZM30.2764 26V20.9029H30.2108L28.7059 21.9937V21.2146L30.2805 20.0828H31.0145V26H30.2764ZM32.7245 26V25.4915L34.7256 23.3264C34.9771 23.053 35.1739 22.8275 35.3161 22.6498C35.4582 22.4694 35.558 22.3067 35.6154 22.1618C35.6728 22.0169 35.7015 21.8584 35.7015 21.6861V21.6779C35.7015 21.4702 35.6564 21.2843 35.5662 21.1203C35.476 20.9562 35.3475 20.8264 35.1808 20.7307C35.014 20.635 34.8144 20.5872 34.5821 20.5872C34.347 20.5872 34.1406 20.6364 33.9629 20.7348C33.7852 20.8305 33.6471 20.9658 33.5487 21.1408C33.4503 21.313 33.4011 21.5153 33.4011 21.7477L33.397 21.7559L32.6917 21.7518L32.6835 21.7477C32.6862 21.3977 32.771 21.0875 32.9377 20.8168C33.1045 20.5434 33.3341 20.3302 33.6266 20.1771C33.9191 20.0213 34.254 19.9434 34.6313 19.9434C34.9757 19.9434 35.286 20.0158 35.5621 20.1607C35.8382 20.3029 36.0556 20.4983 36.2141 20.7471C36.3754 20.9959 36.4561 21.2802 36.4561 21.6V21.6082C36.4561 21.8324 36.4164 22.0484 36.3371 22.2561C36.2606 22.4639 36.1239 22.6949 35.9271 22.9491C35.7302 23.2006 35.4528 23.5109 35.0947 23.88L33.5651 25.4587L33.7496 25.1184V25.4587L33.5692 25.3357H36.5545V26H32.7245ZM39.8063 26.0984C39.3989 26.0984 39.0436 26.0287 38.7401 25.8893C38.4367 25.7499 38.1961 25.5585 38.0184 25.3152C37.8434 25.0719 37.7423 24.7944 37.715 24.4828L37.7109 24.4336H38.4203L38.4244 24.4746C38.4435 24.6687 38.5118 24.8395 38.6294 24.9871C38.7497 25.1348 38.9096 25.251 39.1092 25.3357C39.3115 25.4177 39.5438 25.4587 39.8063 25.4587C40.066 25.4587 40.2929 25.4136 40.487 25.3234C40.6838 25.2332 40.8369 25.1088 40.9462 24.9502C41.0556 24.7889 41.1103 24.6044 41.1103 24.3967V24.3885C41.1103 24.0249 40.9886 23.746 40.7453 23.5519C40.5047 23.3551 40.1767 23.2567 39.7612 23.2567H39.019V22.6334H39.7284C39.9635 22.6334 40.1712 22.5896 40.3517 22.5022C40.5321 22.412 40.6729 22.2903 40.774 22.1372C40.8752 21.9814 40.9257 21.8051 40.9257 21.6082V21.6C40.9257 21.3923 40.882 21.2159 40.7945 21.071C40.707 20.9262 40.5786 20.8154 40.4091 20.7389C40.2423 20.6624 40.0386 20.6241 39.7981 20.6241C39.5657 20.6241 39.3579 20.6637 39.1748 20.743C38.9943 20.8195 38.8495 20.9303 38.7401 21.0751C38.6308 21.22 38.5651 21.3923 38.5433 21.5918L38.5392 21.6328H37.8298L37.8339 21.5918C37.8667 21.2692 37.9678 20.9877 38.1373 20.7471C38.3095 20.5065 38.5364 20.3193 38.818 20.1853C39.1023 20.0514 39.429 19.9844 39.7981 19.9844C40.1753 19.9844 40.5034 20.05 40.7822 20.1812C41.0638 20.3097 41.2811 20.4888 41.4342 20.7184C41.59 20.9453 41.668 21.2091 41.668 21.5098V21.518C41.668 21.7613 41.6146 21.9773 41.508 22.1659C41.4014 22.3545 41.2538 22.5117 41.0652 22.6375C40.8765 22.7632 40.6592 22.8521 40.4132 22.904V22.9204C40.8451 22.956 41.1937 23.1022 41.4588 23.3592C41.7267 23.6134 41.8607 23.9511 41.8607 24.3721V24.3803C41.8607 24.7083 41.7718 25.0022 41.5941 25.2619C41.4165 25.5216 41.1731 25.7266 40.8642 25.877C40.5553 26.0246 40.2027 26.0984 39.8063 26.0984ZM45.7604 26V24.7739H42.8776V24.1014C43.0389 23.8335 43.203 23.5629 43.3697 23.2895C43.5365 23.0134 43.7046 22.7386 43.8741 22.4653C44.0463 22.1892 44.2185 21.9158 44.3908 21.6451C44.563 21.3745 44.7339 21.108 44.9033 20.8455C45.0756 20.5831 45.2451 20.3288 45.4118 20.0828H46.4821V24.1137H47.3227V24.7739H46.4821V26H45.7604ZM43.6322 24.1178H45.7645V20.7676H45.7153C45.5813 20.9672 45.4446 21.1749 45.3052 21.3909C45.1658 21.6041 45.0236 21.8228 44.8787 22.047C44.7366 22.2712 44.5944 22.4967 44.4523 22.7236C44.3101 22.9505 44.1693 23.1774 44.0299 23.4043C43.8932 23.6285 43.7606 23.8499 43.6322 24.0686V24.1178ZM49.4222 20.1566H49.984L49.9225 21.5959H49.4837L49.4222 20.1566ZM49.4222 23.0311L49.4837 21.5959H49.9225L49.984 23.0311H49.4222ZM48.3192 21.0916L48.598 20.6569L49.8118 21.4237L49.5904 21.7641L48.3192 21.0916ZM51.083 21.0916L49.8118 21.7641L49.5904 21.4237L50.8041 20.6569L51.083 21.0916ZM51.083 22.0962L50.8041 22.5309L49.5904 21.7641L49.8118 21.4237L51.083 22.0962ZM48.3192 22.0962L49.5904 21.4237L49.8118 21.7641L48.598 22.5309L48.3192 22.0962ZM53.3834 20.1566H53.9452L53.8837 21.5959H53.445L53.3834 20.1566ZM53.3834 23.0311L53.445 21.5959H53.8837L53.9452 23.0311H53.3834ZM52.2804 21.0916L52.5592 20.6569L53.773 21.4237L53.5516 21.7641L52.2804 21.0916ZM55.0442 21.0916L53.773 21.7641L53.5516 21.4237L54.7654 20.6569L55.0442 21.0916ZM55.0442 22.0962L54.7654 22.5309L53.5516 21.7641L53.773 21.4237L55.0442 22.0962ZM52.2804 22.0962L53.5516 21.4237L53.773 21.7641L52.5592 22.5309L52.2804 22.0962ZM57.3446 20.1566H57.9064L57.8449 21.5959H57.4062L57.3446 20.1566ZM57.3446 23.0311L57.4062 21.5959H57.8449L57.9064 23.0311H57.3446ZM56.2416 21.0916L56.5204 20.6569L57.7342 21.4237L57.5128 21.7641L56.2416 21.0916ZM59.0054 21.0916L57.7342 21.7641L57.5128 21.4237L58.7266 20.6569L59.0054 21.0916ZM59.0054 22.0962L58.7266 22.5309L57.5128 21.7641L57.7342 21.4237L59.0054 22.0962ZM56.2416 22.0962L57.5128 21.4237L57.7342 21.7641L56.5204 22.5309L56.2416 22.0962ZM61.3059 20.1566H61.8676L61.8061 21.5959H61.3674L61.3059 20.1566ZM61.3059 23.0311L61.3674 21.5959H61.8061L61.8676 23.0311H61.3059ZM60.2028 21.0916L60.4816 20.6569L61.6954 21.4237L61.474 21.7641L60.2028 21.0916ZM62.9666 21.0916L61.6954 21.7641L61.474 21.4237L62.6878 20.6569L62.9666 21.0916ZM62.9666 22.0962L62.6878 22.5309L61.474 21.7641L61.6954 21.4237L62.9666 22.0962ZM60.2028 22.0962L61.474 21.4237L61.6954 21.7641L60.4816 22.5309L60.2028 22.0962ZM65.2671 20.1566H65.8288L65.7673 21.5959H65.3286L65.2671 20.1566ZM65.2671 23.0311L65.3286 21.5959H65.7673L65.8288 23.0311H65.2671ZM64.164 21.0916L64.4428 20.6569L65.6566 21.4237L65.4352 21.7641L64.164 21.0916ZM66.9278 21.0916L65.6566 21.7641L65.4352 21.4237L66.649 20.6569L66.9278 21.0916ZM66.9278 22.0962L66.649 22.5309L65.4352 21.7641L65.6566 21.4237L66.9278 22.0962ZM64.164 22.0962L65.4352 21.4237L65.6566 21.7641L64.4428 22.5309L64.164 22.0962Z" fill="white"/>
<path d="M77.4375 22.5669L75.2602 24.7442L73.0829 22.5669" stroke="white" stroke-width="0.559872" stroke-linecap="square"/>
<path d="M95.7266 23.5C95.7266 19.3772 99.0687 16.035 103.192 16.035H106.924C111.047 16.035 114.389 19.3772 114.389 23.5C114.389 27.6228 111.047 30.965 106.924 30.965H103.192C99.0687 30.965 95.7266 27.6228 95.7266 23.5Z" fill="white" fill-opacity="0.3"/>
<path d="M103.566 27.792L103.566 24.9926L100.767 24.9926" stroke="white" stroke-width="0.69984"/>
<path d="M105.527 20.2337L105.527 23.0331L108.327 23.0331" stroke="white" stroke-width="0.69984"/>
<path d="M108.327 20.2337L105.76 22.7998M101.328 27.2321L103.661 24.8993" stroke="white" stroke-width="0.69984"/>
<path d="M8.50864 57V51.2719H6.42651V50.3821H11.6181V51.2719H9.53594V57H8.50864ZM14.2368 57L12.4528 50.3821H13.5259L14.7413 55.5232H14.8009L16.1813 50.3821H17.1398L18.5294 55.5232H18.5891L19.7998 50.3821H20.8684L19.0844 57H18.1121L16.6904 52.0561H16.6308L15.2091 57H14.2368ZM22.1113 57V50.3821H24.5007C25.158 50.3821 25.719 50.5121 26.1838 50.772C26.6485 51.0319 27.0032 51.4064 27.2478 51.8956C27.4954 52.3848 27.6193 52.9764 27.6193 53.6704V53.6796C27.6193 54.3798 27.4954 54.9775 27.2478 55.4728C27.0032 55.9681 26.6485 56.3472 26.1838 56.6102C25.7221 56.8701 25.1611 57 24.5007 57H22.1113ZM23.1386 56.1103H24.386C24.8477 56.1103 25.2406 56.0155 25.5646 55.8259C25.8918 55.6364 26.1394 55.3612 26.3076 55.0004C26.4788 54.6396 26.5644 54.204 26.5644 53.6934V53.6842C26.5644 53.1767 26.4773 52.7425 26.303 52.3817C26.1318 52.0209 25.8841 51.7458 25.5601 51.5562C25.236 51.3666 24.8446 51.2719 24.386 51.2719H23.1386V56.1103Z" fill="white"/>
<path d="M32.2686 58V56.9102L36.5664 52.2695C37.1055 51.6836 37.5273 51.2002 37.832 50.8193C38.1367 50.4326 38.3506 50.084 38.4736 49.7734C38.5967 49.4629 38.6582 49.123 38.6582 48.7539V48.7363C38.6582 48.291 38.5615 47.8926 38.3682 47.541C38.1748 47.1895 37.8994 46.9111 37.542 46.7061C37.1846 46.501 36.7568 46.3984 36.2588 46.3984C35.7549 46.3984 35.3096 46.5039 34.9229 46.7148C34.542 46.9258 34.2461 47.2188 34.0352 47.5938C33.8242 47.9629 33.7188 48.3936 33.7188 48.8857L33.71 48.9033L32.1982 48.8945L32.1807 48.8857C32.1865 48.1357 32.3682 47.4707 32.7256 46.8906C33.083 46.3047 33.5752 45.8477 34.2021 45.5195C34.835 45.1855 35.5557 45.0186 36.3643 45.0186C37.1025 45.0186 37.7676 45.1738 38.3594 45.4844C38.9512 45.7891 39.417 46.208 39.7568 46.7412C40.1025 47.2744 40.2754 47.8838 40.2754 48.5693V48.5869C40.2754 49.0674 40.1904 49.5303 40.0205 49.9756C39.8564 50.4209 39.5635 50.916 39.1416 51.4609C38.7197 52 38.125 52.665 37.3574 53.4561L34.0703 56.8486L34.4658 56.1104V56.8486L34.0703 56.5762H40.4863V58H32.2686ZM43.6504 58L49.3457 46.8555V46.7324H42.5605V45.3174H50.9541V46.7852L45.3115 58H43.6504ZM57.335 58.2988C56.3975 58.2988 55.5947 58.0293 54.9268 57.4902C54.2588 56.9512 53.7461 56.1865 53.3887 55.1963C53.0312 54.2002 52.8525 53.0225 52.8525 51.6631V51.6455C52.8525 50.2861 53.0312 49.1113 53.3887 48.1211C53.7461 47.1309 54.2588 46.3662 54.9268 45.8271C55.5947 45.2881 56.3975 45.0186 57.335 45.0186C58.2725 45.0186 59.0752 45.2881 59.7432 45.8271C60.417 46.3662 60.9326 47.1309 61.29 48.1211C61.6533 49.1113 61.835 50.2861 61.835 51.6455V51.6631C61.835 53.0225 61.6533 54.2002 61.29 55.1963C60.9326 56.1865 60.417 56.9512 59.7432 57.4902C59.0752 58.0293 58.2725 58.2988 57.335 58.2988ZM57.335 56.9189C57.9443 56.9189 58.4658 56.7051 58.8994 56.2773C59.333 55.8496 59.6641 55.2432 59.8926 54.458C60.127 53.6729 60.2441 52.7412 60.2441 51.6631V51.6455C60.2441 50.5674 60.127 49.6387 59.8926 48.8594C59.6641 48.0742 59.333 47.4707 58.8994 47.0488C58.4658 46.6211 57.9443 46.4072 57.335 46.4072C56.7314 46.4072 56.2129 46.6211 55.7793 47.0488C55.3457 47.4707 55.0146 48.0742 54.7861 48.8594C54.5576 49.6387 54.4434 50.5674 54.4434 51.6455V51.6631C54.4434 52.7412 54.5576 53.6729 54.7861 54.458C55.0146 55.2432 55.3457 55.8496 55.7793 56.2773C56.2129 56.7051 56.7314 56.9189 57.335 56.9189ZM63.3291 61.1904L64.0938 56.2246H65.834L64.4541 61.1904H63.3291ZM72.8125 58.2988C72.2324 58.2988 71.6582 58.1875 71.0898 57.9648C70.5215 57.7422 70.0059 57.3818 69.543 56.8838C69.0859 56.3857 68.7197 55.7295 68.4443 54.915C68.1689 54.0947 68.0312 53.0869 68.0312 51.8916V51.874C68.0312 50.4326 68.2246 49.2021 68.6113 48.1826C68.998 47.1572 69.5547 46.375 70.2812 45.8359C71.0137 45.291 71.8926 45.0186 72.918 45.0186C73.627 45.0186 74.2656 45.1504 74.834 45.4141C75.4082 45.6719 75.8857 46.0352 76.2666 46.5039C76.6533 46.9668 76.917 47.5117 77.0576 48.1387L77.084 48.2529H75.4932L75.458 48.1562C75.3291 47.7988 75.1445 47.4941 74.9043 47.2422C74.6699 46.9844 74.3828 46.7852 74.043 46.6445C73.709 46.5039 73.3281 46.4336 72.9004 46.4336C72.127 46.4336 71.5 46.6592 71.0195 47.1104C70.5391 47.5557 70.1816 48.1504 69.9473 48.8945C69.7188 49.6387 69.5869 50.4531 69.5518 51.3379C69.5459 51.4141 69.543 51.4902 69.543 51.5664C69.543 51.6426 69.543 51.7217 69.543 51.8037L69.9209 53.9131C69.9209 54.4697 70.0469 54.9736 70.2988 55.4248C70.5566 55.876 70.9023 56.2363 71.3359 56.5059C71.7754 56.7695 72.2617 56.9014 72.7949 56.9014C73.3281 56.9014 73.8115 56.7725 74.2451 56.5146C74.6787 56.251 75.0215 55.8965 75.2734 55.4512C75.5312 55.0059 75.6602 54.5107 75.6602 53.9658V53.9482C75.6602 53.3857 75.5371 52.8877 75.291 52.4541C75.0508 52.0146 74.7168 51.6719 74.2891 51.4258C73.8613 51.1738 73.3721 51.0479 72.8213 51.0479C72.2764 51.0479 71.7842 51.1709 71.3447 51.417C70.9053 51.6631 70.5566 52.0029 70.2988 52.4365C70.0469 52.8643 69.9209 53.3535 69.9209 53.9043V53.9131H69.4023V51.6367H69.71C69.8682 51.2852 70.1025 50.96 70.4131 50.6611C70.7236 50.3623 71.1045 50.1221 71.5557 49.9404C72.0127 49.7588 72.5254 49.668 73.0938 49.668C73.8906 49.668 74.6025 49.8525 75.2295 50.2217C75.8564 50.5908 76.3486 51.0947 76.7061 51.7334C77.0693 52.3721 77.251 53.0986 77.251 53.9131V53.9307C77.251 54.7744 77.0576 55.5244 76.6709 56.1807C76.29 56.8369 75.7656 57.3555 75.0977 57.7363C74.4297 58.1113 73.668 58.2988 72.8125 58.2988ZM82.876 58V47.0752H82.7354L79.5098 49.4131V47.7432L82.8848 45.3174H84.4492V58H82.876ZM92.3506 58.2988C91.4131 58.2988 90.6104 58.0293 89.9424 57.4902C89.2744 56.9512 88.7617 56.1865 88.4043 55.1963C88.0469 54.2002 87.8682 53.0225 87.8682 51.6631V51.6455C87.8682 50.2861 88.0469 49.1113 88.4043 48.1211C88.7617 47.1309 89.2744 46.3662 89.9424 45.8271C90.6104 45.2881 91.4131 45.0186 92.3506 45.0186C93.2881 45.0186 94.0908 45.2881 94.7588 45.8271C95.4326 46.3662 95.9482 47.1309 96.3057 48.1211C96.6689 49.1113 96.8506 50.2861 96.8506 51.6455V51.6631C96.8506 53.0225 96.6689 54.2002 96.3057 55.1963C95.9482 56.1865 95.4326 56.9512 94.7588 57.4902C94.0908 58.0293 93.2881 58.2988 92.3506 58.2988ZM92.3506 56.9189C92.96 56.9189 93.4814 56.7051 93.915 56.2773C94.3486 55.8496 94.6797 55.2432 94.9082 54.458C95.1426 53.6729 95.2598 52.7412 95.2598 51.6631V51.6455C95.2598 50.5674 95.1426 49.6387 94.9082 48.8594C94.6797 48.0742 94.3486 47.4707 93.915 47.0488C93.4814 46.6211 92.96 46.4072 92.3506 46.4072C91.7471 46.4072 91.2285 46.6211 90.7949 47.0488C90.3613 47.4707 90.0303 48.0742 89.8018 48.8594C89.5732 49.6387 89.459 50.5674 89.459 51.6455V51.6631C89.459 52.7412 89.5732 53.6729 89.8018 54.458C90.0303 55.2432 90.3613 55.8496 90.7949 56.2773C91.2285 56.7051 91.7471 56.9189 92.3506 56.9189Z" fill="white"/>
<path d="M108.192 48.0298C110.574 48.1504 112.079 50.1111 112.993 52.0718C112.049 54.0956 110.476 56.1193 107.96 56.1197L107.727 56.1138C105.345 55.9933 103.84 54.0325 102.926 52.0718C103.87 50.0479 105.443 48.024 107.96 48.024L108.192 48.0298ZM107.96 48.7828C106.031 48.7828 104.688 50.2452 103.77 52.0718C104.688 53.8986 106.031 55.3609 107.96 55.3609C109.889 55.3605 111.231 53.8983 112.149 52.0718C111.231 50.2454 109.889 48.7831 107.96 48.7828ZM108.197 50.0591C109.218 50.1627 110.015 51.0248 110.015 52.0728L110.004 52.2789C109.9 53.2992 109.039 54.0959 107.991 54.0962L107.784 54.0855C106.831 53.9889 106.074 53.2315 105.978 52.2789L105.967 52.0728C105.967 50.955 106.873 50.0484 107.991 50.0484L108.197 50.0591ZM107.991 50.8072C107.293 50.8072 106.726 51.3742 106.726 52.0728C106.726 52.771 107.293 53.3374 107.991 53.3374C108.689 53.3371 109.255 52.7708 109.256 52.0728C109.256 51.3744 108.69 50.8075 107.991 50.8072Z" fill="white"/>
<rect x="93.268" y="84.732" width="4.536" height="4.536" stroke="#4E97FF" stroke-width="4.536"/>
<path d="M97.0635 99.7278V102.783H94.0078V99.7278H97.0635Z" stroke="#FF833E" stroke-width="4.536"/>
<path d="M96.625 115.719V117.897H94.4473V115.719H96.625Z" stroke="#68C89E" stroke-width="4.536"/>
<path d="M96.625 131.272V133.449H94.4473V131.272H96.625Z" stroke="#FFD737" stroke-width="4.536"/>
<g clip-path="url(#clip0_240_28734)">
<mask id="path-18-inside-1_240_28734" fill="white">
<path d="M61.3662 134.857C57.2113 137.44 52.4734 138.935 47.5888 139.207C42.7042 139.478 37.8299 138.516 33.4146 136.409C28.9994 134.302 25.1851 131.118 22.3231 127.151C19.4611 123.183 17.6432 118.559 17.037 113.705L22.824 112.982C23.309 116.866 24.7633 120.565 27.0529 123.739C29.3426 126.913 32.394 129.46 35.9262 131.145C39.4584 132.831 43.3578 133.6 47.2655 133.384C51.1732 133.167 54.9635 131.97 58.2874 129.904L61.3662 134.857Z"/>
</mask>
<path d="M61.3662 134.857C57.2113 137.44 52.4734 138.935 47.5888 139.207C42.7042 139.478 37.8299 138.516 33.4146 136.409C28.9994 134.302 25.1851 131.118 22.3231 127.151C19.4611 123.183 17.6432 118.559 17.037 113.705L22.824 112.982C23.309 116.866 24.7633 120.565 27.0529 123.739C29.3426 126.913 32.394 129.46 35.9262 131.145C39.4584 132.831 43.3578 133.6 47.2655 133.384C51.1732 133.167 54.9635 131.97 58.2874 129.904L61.3662 134.857Z" stroke="#FF833E" stroke-width="10.4454" mask="url(#path-18-inside-1_240_28734)"/>
<mask id="path-19-inside-2_240_28734" fill="white">
<path d="M29.0915 86.3143C33.6484 83.0791 39.0391 81.2215 44.6217 80.9626L44.8918 86.7884C40.4257 86.9954 36.1132 88.4815 32.4676 91.0697L29.0915 86.3143Z"/>
</mask>
<path d="M29.0915 86.3143C33.6484 83.0791 39.0391 81.2215 44.6217 80.9626L44.8918 86.7884C40.4257 86.9954 36.1132 88.4815 32.4676 91.0697L29.0915 86.3143Z" stroke="#FFD737" stroke-width="10.4454" mask="url(#path-19-inside-2_240_28734)"/>
<mask id="path-20-inside-3_240_28734" fill="white">
<path d="M16.8993 112.343C16.5292 107.565 17.3424 102.769 19.2671 98.3804C21.1919 93.9914 24.1687 90.1444 27.9342 87.1798L31.5418 91.7621C28.5294 94.1338 26.1479 97.2114 24.6082 100.723C23.0684 104.234 22.4178 108.07 22.7139 111.893L16.8993 112.343Z"/>
</mask>
<path d="M16.8993 112.343C16.5292 107.565 17.3424 102.769 19.2671 98.3804C21.1919 93.9914 24.1687 90.1444 27.9342 87.1798L31.5418 91.7621C28.5294 94.1338 26.1479 97.2114 24.6082 100.723C23.0684 104.234 22.4178 108.07 22.7139 111.893L16.8993 112.343Z" stroke="#68C89E" stroke-width="10.4454" mask="url(#path-20-inside-3_240_28734)"/>
<mask id="path-21-inside-4_240_28734" fill="white">
<path d="M46.2267 80.8133C52.4157 80.8673 58.427 82.8892 63.3907 86.5863C68.3545 90.2834 72.0131 95.464 73.8371 101.378C75.6611 107.293 75.556 113.634 73.5369 119.485C71.5179 125.336 67.6896 130.392 62.6061 133.923L59.2793 129.133C63.3461 126.308 66.4087 122.263 68.024 117.582C69.6393 112.902 69.7234 107.829 68.2641 103.097C66.8049 98.3657 63.878 94.2212 59.907 91.2635C55.9361 88.3058 51.127 86.6883 46.1758 86.6451L46.2267 80.8133Z"/>
</mask>
<path d="M46.2267 80.8133C52.4157 80.8673 58.427 82.8892 63.3907 86.5863C68.3545 90.2834 72.0131 95.464 73.8371 101.378C75.6611 107.293 75.556 113.634 73.5369 119.485C71.5179 125.336 67.6896 130.392 62.6061 133.923L59.2793 129.133C63.3461 126.308 66.4087 122.263 68.024 117.582C69.6393 112.902 69.7234 107.829 68.2641 103.097C66.8049 98.3657 63.878 94.2212 59.907 91.2635C55.9361 88.3058 51.127 86.6883 46.1758 86.6451L46.2267 80.8133Z" stroke="#4E97FF" stroke-width="10.4454" mask="url(#path-21-inside-4_240_28734)"/>
</g>
<defs>
<clipPath id="clip0_240_28734">
<rect width="59" height="59" fill="white" transform="translate(16 81)"/>
</clipPath>
</defs>
</svg>
