<svg width="120" height="156" viewBox="0 0 120 156" fill="none" xmlns="http://www.w3.org/2000/svg">
<g clip-path="url(#clip0_240_28771)">
<rect width="120" height="156" rx="12" fill="white"/>
<path d="M22.9496 27.0632V28.3824C22.2152 28.6272 21.44 28.8448 20.624 29.0624V31.9048C20.624 32.7752 20.1616 33.224 19.2504 33.224H17.7272L17.4416 31.9864C17.9176 32.0408 18.3664 32.068 18.8016 32.068C19.1416 32.068 19.3184 31.9048 19.3184 31.5784V29.3616C18.5024 29.5384 17.6728 29.7016 16.8024 29.8376L16.6256 28.5456C17.564 28.396 18.4616 28.2328 19.3184 28.056V25.6216H16.6256V24.384H19.3184V22.9424C18.6384 23.0784 17.9448 23.1872 17.224 23.296L16.952 22.072C18.856 21.868 20.5424 21.4736 22.0112 20.8752L22.46 22.0856C21.8752 22.2896 21.2632 22.48 20.624 22.6568V24.384H23.5616C23.48 23.3232 23.4392 22.1536 23.4392 20.8752H24.7448C24.7448 22.208 24.7856 23.3776 24.8672 24.384H28.9744V25.6216H24.976C25.0576 26.5192 25.18 27.2672 25.3432 27.8656C25.3976 28.124 25.4656 28.3552 25.5336 28.5728C26.1184 27.8656 26.6352 27.0632 27.0704 26.1656L28.1856 26.7504C27.5736 28.0016 26.8528 29.076 26.0096 29.9736C26.1728 30.3408 26.3224 30.6536 26.4856 30.8984C26.8936 31.5104 27.2064 31.8232 27.424 31.8232C27.6008 31.8232 27.7776 31.116 27.9544 29.7016L29.0968 30.3C28.7568 32.2312 28.2536 33.2104 27.6008 33.2104C27.016 33.2104 26.404 32.8024 25.7648 32C25.5064 31.6736 25.2752 31.3064 25.0712 30.8712C24.1328 31.66 23.0856 32.2856 21.916 32.7344L21.1952 31.6192C22.4736 31.1568 23.5888 30.4904 24.5408 29.62C24.3776 29.1712 24.2416 28.7088 24.1192 28.2192C23.9288 27.4848 23.7792 26.6144 23.6704 25.6216H20.624V27.7568C21.44 27.5392 22.2152 27.308 22.9496 27.0632ZM26.2408 20.9976C27.2064 21.6096 28.0224 22.2216 28.7024 22.8336L27.764 23.7584C27.1928 23.16 26.404 22.5208 25.3704 21.8272L26.2408 20.9976ZM35.2168 23.092V32.5576H33.9792V31.8504H31.8304V32.952H30.5928V23.092H31.8848C32.1296 22.3576 32.32 21.6096 32.4288 20.8208L33.7208 20.9976C33.5848 21.7456 33.3808 22.4392 33.1224 23.092H35.2168ZM31.8304 30.6536H33.9792V27.9744H31.8304V30.6536ZM31.8304 26.8184H33.9792V24.316H31.8304V26.8184ZM37.6648 26.356C38.5624 27.4712 39.256 28.4368 39.732 29.28L38.712 30.0008C38.1952 29.1032 37.488 28.1104 36.6176 27.0088L37.6648 26.356ZM42.2344 23.1056C42.2344 27.7976 42.1664 30.6944 42.0304 31.7824C41.8944 32.7616 41.2416 33.2512 40.0856 33.2512C39.8136 33.2512 39.324 33.224 38.644 33.1832L38.3312 32C38.9296 32.0272 39.4464 32.0544 39.8816 32.0544C40.4256 32.0544 40.7384 31.7688 40.82 31.1976C40.9016 30.5176 40.9424 28.2328 40.9696 24.3568H37.556C37.1752 25.1728 36.74 25.9208 36.2232 26.6008L35.448 25.5808C36.3456 24.2752 36.9712 22.684 37.2976 20.8072L38.576 20.9704C38.44 21.732 38.2496 22.4392 38.032 23.1056H42.2344ZM48.912 21.6096H55.5488V22.8744H48.912V21.6096ZM48.572 25.0096H56.1336V26.2744H54.012V32.0408C54.012 32.9112 53.5224 33.3464 52.5568 33.3464H50.5848L50.2992 32.0816C50.9248 32.136 51.5368 32.1632 52.108 32.1632C52.5024 32.1632 52.7064 32.0136 52.7064 31.728V26.2744H48.572V25.0096ZM46.6 20.9432L47.7832 21.4872C47.0488 22.9832 45.8248 24.316 44.084 25.5128L43.6896 24.2208C45.0088 23.2824 45.9744 22.1944 46.6 20.9432ZM47.2392 24.0576L48.4088 24.6016C48.0416 25.336 47.5792 26.0296 47.0216 26.6824V33.4008H45.7568V27.9472C45.2672 28.3688 44.7504 28.7768 44.1792 29.1712L43.7984 27.8928C45.3488 26.8048 46.5048 25.5264 47.2392 24.0576ZM58.9352 23.296H62.9608V22.616H57.7384V21.5144H62.9608V20.8072H64.2392V21.5144H69.4616V22.616H64.2392V23.296H68.2648V26.0976H64.2392V26.7776H68.4552V28.5592H69.8288V29.6064H68.4552V31.388H64.2392V32.0816C64.2392 32.9248 63.7904 33.3464 62.8928 33.3464H61.22L60.948 32.1224C61.4648 32.1768 61.968 32.2176 62.4576 32.2176C62.784 32.2176 62.9608 32.068 62.9608 31.7824V31.388H58.5952V30.3544H62.9608V29.6064H57.3712V28.5592H62.9608V27.784H58.6088V26.7776H62.9608V26.0976H58.9352V23.296ZM66.9864 25.132V24.248H64.2392V25.132H66.9864ZM62.9608 25.132V24.248H60.2136V25.132H62.9608ZM64.2392 27.784V28.5592H67.2176V27.784H64.2392ZM67.2176 29.6064H64.2392V30.3544H67.2176V29.6064ZM81.2256 26.7368V28.26H80.1376V26.1928C79.784 26.9272 79.2944 27.5936 78.6824 28.192L78.0024 27.4304C78.696 26.9136 79.2264 26.3288 79.58 25.676H78.4512V24.6968H80.1376V23.976C79.648 24.0032 79.1448 24.0304 78.6144 24.0304L78.3152 23.1464C79.92 23.1464 81.2664 22.9832 82.3544 22.684L82.8576 23.5408C82.368 23.6768 81.824 23.7992 81.2256 23.8808V24.6968H83.048V25.676H81.2256V25.8392C81.9192 26.22 82.6128 26.6416 83.3064 27.104L82.7352 27.9472C82.1504 27.4576 81.6472 27.0496 81.2256 26.7368ZM73.664 24.6968H75.3504V23.976C74.888 24.0032 74.412 24.0168 73.9224 24.0168L73.6096 23.1328C75.1464 23.1328 76.452 22.9832 77.5128 22.7112L78.016 23.568C77.54 23.704 77.0096 23.7992 76.4384 23.8808V24.6968H77.9072V25.676H76.4384V25.948C76.9416 26.2064 77.4584 26.492 78.0024 26.8184L77.4584 27.6208C77.064 27.2944 76.724 27.036 76.4384 26.8456V28.26H75.3504V26.5736C74.888 27.1312 74.3576 27.6072 73.7592 28.0152L73.188 27.1584V27.4168C73.1472 29.892 72.712 31.8776 71.8824 33.3736L70.9304 32.5304C71.5696 31.3064 71.9096 29.6064 71.9368 27.4168V21.3104H83.2384V22.3984H73.188V27.0768C73.9768 26.6688 74.6024 26.2064 75.092 25.676H73.664V24.6968ZM82.3544 28.5592V33.428H81.1168V32.9248H75.4864V33.428H74.2488V28.5592H82.3544ZM75.4864 31.9456H81.1168V31.1976H75.4864V31.9456ZM75.4864 30.2864H81.1168V29.5384H75.4864V30.2864Z" fill="#041C43"/>
<g clip-path="url(#clip1_240_28771)">
<ellipse cx="21.2789" cy="51.5001" rx="4.4" ry="4.4" stroke="#4C5466" stroke-width="0.792"/>
<path d="M21.2774 49.2824C21.1313 49.2824 21.013 49.3242 20.9156 49.4216C20.8182 49.512 20.7695 49.6303 20.7695 49.7764C20.7695 49.9156 20.8182 50.0408 20.9156 50.1382C21.013 50.2287 21.1313 50.2774 21.2774 50.2774C21.4166 50.2774 21.5418 50.2287 21.6392 50.1382C21.7366 50.0408 21.7923 49.9225 21.7923 49.7764C21.7923 49.6303 21.7436 49.512 21.6462 49.4216C21.5488 49.3242 21.4235 49.2824 21.2774 49.2824ZM20.9087 50.9137V53.7119H21.6462V50.9137H20.9087Z" fill="#4C5466"/>
</g>
<path d="M31.1227 46.882L31.786 47.1889C31.5583 47.8918 31.2811 48.5551 30.9544 49.1788V55.9603H30.2218V50.3668C29.8852 50.842 29.5288 51.2875 29.1328 51.7132L28.915 50.9707C29.9248 49.7827 30.6673 48.4165 31.1227 46.882ZM34.7065 46.9018C34.8451 47.3473 34.9837 47.8621 35.1223 48.4363H37.7359V49.1194H34.5283C34.2907 49.8619 33.9739 50.545 33.5977 51.1687V54.9406C34.2511 54.7327 34.855 54.4852 35.4193 54.208L35.5381 54.8911C34.7956 55.2277 33.9046 55.5544 32.8651 55.8712L32.7067 55.2475C32.8453 55.1881 32.9146 55.1089 32.9146 54.9901V52.1488C32.5186 52.624 32.083 53.0695 31.6078 53.4655L31.2415 52.8616C32.4394 51.8914 33.3007 50.644 33.8353 49.1194H31.7266V48.4363H34.3996C34.2709 47.9215 34.1224 47.4562 33.9442 47.0206L34.7065 46.9018ZM37.4389 50.3767L37.8745 50.9311C37.429 51.4063 36.8548 51.8716 36.142 52.3171C36.5578 53.4853 37.2013 54.4654 38.0824 55.2574L37.5973 55.8118C35.9935 54.3466 35.1421 52.327 35.0332 49.7431L35.6272 49.5649C35.6668 50.3371 35.7757 51.0499 35.9539 51.7132C36.5479 51.2974 37.0429 50.8519 37.4389 50.3767ZM45.349 52.4953C45.5173 52.9507 45.7252 53.3665 45.9628 53.7229C46.4182 53.4853 46.8439 53.119 47.2597 52.6339L47.725 53.0992C47.3092 53.5744 46.8538 53.9407 46.339 54.1981C46.7944 54.7129 47.3587 55.099 48.0121 55.3663L47.626 55.9207C46.2994 55.3663 45.3688 54.3169 44.8144 52.7923L45.349 52.4953ZM41.6662 54.2575H41.0425V56.0296H40.4188V49.1194H39.7258V54.2872H39.1318V48.4957H40.4188V46.882H41.0425V48.4957H42.3295V53.4952C42.3295 54.0001 42.1018 54.2575 41.6662 54.2575ZM41.0425 49.1194V53.6536L41.4682 53.6734C41.6464 53.6734 41.7355 53.5744 41.7355 53.3764V49.1194H41.0425ZM47.4874 47.2285V47.8621H43.9432V48.664H47.1508V49.2976H43.9432V50.1193H47.1904V50.7331H43.9432V51.5449H47.8735V52.1983H43.8739V55.1485C44.3392 54.9901 44.8144 54.7822 45.2995 54.5149L45.4282 55.1584C44.7946 55.4851 44.062 55.7524 43.2304 55.9702L42.9532 55.3762C43.1116 55.3267 43.1908 55.2574 43.1908 55.1683V52.1983H42.5572V51.5449H43.2601V47.2285H47.4874ZM49.8733 48.4957C50.2 48.7333 50.5069 48.9808 50.7841 49.2184C51.1702 48.862 51.5266 48.4462 51.8434 47.9809H49.0714V47.3275H52.6552V47.8819C52.2196 48.5551 51.7543 49.1392 51.2395 49.6243C51.3979 49.7728 51.5563 49.9213 51.6949 50.0797L51.4276 50.3371H52.8235V50.941C52.5859 51.634 52.2988 52.2577 51.9721 52.8022L51.5266 52.4062C51.7543 52.03 51.9721 51.5647 52.1899 51.0103H51.2692V55.1584C51.2692 55.6732 51.0118 55.9405 50.5168 55.9405H49.6357L49.4971 55.3168C49.7743 55.3366 50.0416 55.3564 50.299 55.3564C50.5168 55.3564 50.6257 55.2376 50.6257 55.0099V51.0103H50.6158C50.2495 52.2973 49.7149 53.4655 49.012 54.505L48.7447 53.8417C49.3486 53.0299 49.8238 52.0894 50.1703 51.0103H48.913V50.3371H51.091C50.6554 49.8817 50.1109 49.4065 49.4377 48.9115L49.8733 48.4957ZM54.1402 46.9216L54.8233 47.0008C54.7441 47.2582 54.655 47.5156 54.5461 47.7532H57.5755V48.4066H56.8825C56.6449 49.0996 56.3083 49.6639 55.8925 50.0896C55.8727 50.0995 55.8628 50.1094 55.8628 50.1094C56.3875 50.3965 57.0112 50.6539 57.724 50.8816L57.2686 51.4261C56.5063 51.1588 55.8628 50.8618 55.3282 50.545C54.853 50.8618 54.259 51.1588 53.5462 51.436L53.1403 50.9212C53.8135 50.6836 54.358 50.4262 54.7837 50.1688C54.3877 49.8619 54.0709 49.5451 53.8333 49.2085L54.3481 48.9214C54.5956 49.2283 54.9223 49.5154 55.3183 49.7827C55.7044 49.4164 56.0014 48.961 56.2192 48.4066H54.1897C53.8828 48.8818 53.5066 49.3075 53.0512 49.6837L52.6453 49.1491C53.3779 48.5452 53.8828 47.8027 54.1402 46.9216ZM57.3379 52.0399C57.3379 53.6239 57.2884 54.5941 57.1993 54.9703C57.1003 55.5742 56.635 55.8811 55.7935 55.8811C55.6153 55.8811 55.3183 55.8712 54.9025 55.8514L54.754 55.2574C55.1203 55.2772 55.4371 55.2871 55.7044 55.2871C56.1994 55.2871 56.4865 55.099 56.5657 54.7228C56.6251 54.4951 56.6548 53.8219 56.6746 52.7032H55.1797C55.0609 53.3368 54.8926 53.8318 54.6748 54.1981C54.259 54.8812 53.5759 55.4653 52.6057 55.9603L52.1701 55.4059C53.0413 54.9802 53.6749 54.4852 54.0511 53.911C54.2392 53.6041 54.3877 53.1982 54.4966 52.7032H52.9126V52.0399H54.6055C54.6352 51.7627 54.655 51.4657 54.6748 51.1489H55.348C55.3282 51.4657 55.3084 51.7627 55.2787 52.0399H57.3379ZM62.3572 46.9414H63.0898V48.169H66.3073V48.862H63.0898V50.347H67.6042V51.04H63.0898V52.0399C64.258 52.5646 65.4361 53.1784 66.634 53.8813L66.2281 54.4852C64.9807 53.7229 63.9412 53.1388 63.0898 52.7329V55.9801H62.3572V51.04H58.8031V50.347H62.3572V46.9414ZM69.8911 52.4161C69.8119 53.9704 69.5347 55.1386 69.0595 55.9207L68.5546 55.4752C68.9902 54.6931 69.2179 53.4358 69.2278 51.7033V47.2087H69.9109V49.6837H70.9999V47.0305H71.6632V50.3272H69.9109V51.7528H71.7226V55.8712H71.0296V52.4161H69.8911ZM72.6136 47.7928H74.158C74.2966 47.4958 74.3956 47.1889 74.4649 46.8721L75.1777 46.9711C75.0985 47.2681 74.9995 47.5354 74.8807 47.7928H77.128V51.9805H74.8114C74.7718 52.0597 74.7421 52.129 74.7025 52.2082C74.3956 52.7032 73.9105 53.0992 73.2571 53.3863H75.2074V52.3468H75.9004V53.3863H77.6131V54.0694H75.9004V55.9603H75.2074V54.0694H72.178V53.3863H73.1383L72.8512 52.9309C73.4155 52.6834 73.8313 52.3666 74.0887 51.9805H72.6136V47.7928ZM76.4746 51.3568V50.1787H75.1876C75.1678 50.6242 75.1084 51.0202 75.0292 51.3568H76.4746ZM74.3659 51.3568C74.4649 51.0004 74.5243 50.6143 74.5441 50.1787H73.2571V51.3568H74.3659ZM73.2571 49.5748H74.554V48.4264H73.2571V49.5748ZM75.1975 48.4264V49.5748H76.4746V48.4264H75.1975ZM82.0582 48.6244V55.3762H81.3652V54.8119H79.5634V55.6633H78.8704V48.6244H79.7911C79.9891 48.07 80.1277 47.4958 80.2168 46.9018L80.9296 47.0008C80.8108 47.5849 80.6623 48.1294 80.4643 48.6244H82.0582ZM79.5634 54.1486H81.3652V51.9805H79.5634V54.1486ZM79.5634 51.337H81.3652V49.2976H79.5634V51.337ZM83.7808 50.9212C84.4936 51.7429 85.0282 52.4656 85.4044 53.0794L84.8401 53.4754C84.4342 52.822 83.8897 52.0894 83.2066 51.2776L83.7808 50.9212ZM87.1765 48.6343C87.1765 51.9211 87.127 53.9605 87.028 54.7327C86.929 55.4851 86.4736 55.8712 85.642 55.8712C85.444 55.8712 85.1074 55.8514 84.6322 55.8316L84.4639 55.1782C84.8797 55.198 85.2361 55.2079 85.543 55.2079C86.0083 55.2079 86.2756 54.9505 86.3548 54.4456C86.4142 53.8912 86.4538 52.1785 86.4736 49.3273H83.7511C83.4739 49.951 83.1472 50.5153 82.7611 51.0202L82.3354 50.4559C83.0284 49.4857 83.4937 48.2977 83.7511 46.8919L84.454 46.981C84.3352 47.5651 84.1966 48.1195 84.0184 48.6343H87.1765ZM94.849 52.4953C95.0173 52.9507 95.2252 53.3665 95.4628 53.7229C95.9182 53.4853 96.3439 53.119 96.7597 52.6339L97.225 53.0992C96.8092 53.5744 96.3538 53.9407 95.839 54.1981C96.2944 54.7129 96.8587 55.099 97.5121 55.3663L97.126 55.9207C95.7994 55.3663 94.8688 54.3169 94.3144 52.7923L94.849 52.4953ZM91.1662 54.2575H90.5425V56.0296H89.9188V49.1194H89.2258V54.2872H88.6318V48.4957H89.9188V46.882H90.5425V48.4957H91.8295V53.4952C91.8295 54.0001 91.6018 54.2575 91.1662 54.2575ZM90.5425 49.1194V53.6536L90.9682 53.6734C91.1464 53.6734 91.2355 53.5744 91.2355 53.3764V49.1194H90.5425ZM96.9874 47.2285V47.8621H93.4432V48.664H96.6508V49.2976H93.4432V50.1193H96.6904V50.7331H93.4432V51.5449H97.3735V52.1983H93.3739V55.1485C93.8392 54.9901 94.3144 54.7822 94.7995 54.5149L94.9282 55.1584C94.2946 55.4851 93.562 55.7524 92.7304 55.9702L92.4532 55.3762C92.6116 55.3267 92.6908 55.2574 92.6908 55.1683V52.1983H92.0572V51.5449H92.7601V47.2285H96.9874ZM98.6407 47.3077H101.482V49.9609H98.6407V47.3077ZM100.819 49.357V47.9116H99.2941V49.357H100.819ZM98.2843 50.6044H101.749V51.2578H99.8386C99.7396 51.6835 99.6406 52.0696 99.5416 52.4161H101.343C101.314 54.2872 101.145 55.3465 100.848 55.5841C100.611 55.792 100.096 55.9009 99.2941 55.9009H99.1357L98.9476 55.2475C99.0763 55.2574 99.1951 55.2673 99.304 55.2673C99.8386 55.2574 100.175 55.1881 100.324 55.0693C100.512 54.9208 100.621 54.2476 100.65 53.0497H98.6902C98.8882 52.3864 99.0367 51.7924 99.1456 51.2578H98.2843V50.6044ZM104.145 46.8721H104.838V47.4661H106.897V48.0601H104.838V48.7729H107.095V49.0996C107.006 49.5847 106.868 50.0599 106.679 50.5351L106.036 50.3569C106.175 50.0698 106.283 49.753 106.382 49.3966H104.838V50.2678L105.977 50.1094L106.076 50.7133L104.838 50.8816V51.3865C104.838 51.5647 104.937 51.6637 105.155 51.6637H106.858V52.2775H104.977C104.432 52.2775 104.165 52.03 104.165 51.535V50.9806L103.195 51.1093L103.106 50.5054L104.165 50.3569V49.3966H102.818V51.6538C102.818 53.3467 102.521 54.802 101.927 56.0098L101.373 55.5247C101.868 54.5149 102.125 53.2279 102.145 51.6736V48.7729H104.145V46.8721ZM103.63 52.5943H104.303C104.284 54.2674 103.927 55.4158 103.234 56.0494L102.67 55.6039C103.294 55.0891 103.61 54.0793 103.63 52.5943ZM106.392 55.8415H105.967C105.392 55.8415 105.105 55.594 105.105 55.099V52.6042H105.749V54.9802C105.749 55.1188 105.828 55.1881 105.986 55.1881H106.353C106.521 55.1881 106.62 55.0891 106.65 54.901C106.679 54.6832 106.699 54.3268 106.699 53.8516L107.303 54.0694C107.303 54.8614 107.244 55.3564 107.125 55.5544C107.016 55.7227 106.769 55.8217 106.392 55.8415Z" fill="#4C5466"/>
<path d="M16 96.3861C16 85.1271 25.1272 76 36.3861 76C47.645 76 56.7722 85.1272 56.7722 96.3861V116.091C56.7722 127.349 47.645 136.477 36.3861 136.477C25.1272 136.477 16 127.349 16 116.091V96.3861Z" fill="#0044AD"/>
<path d="M31.0257 86.0458H28.3348V87.1568H31.0257V86.0458ZM31.0257 87.799H28.3348V88.8285H31.0257V87.799ZM31.7393 88.8285H34.5118V87.799H31.7393V88.8285ZM34.5118 89.4808H28.3348V89.5318C28.3144 91.4889 27.978 93.079 27.3155 94.2919L26.7549 93.7925C27.3053 92.6916 27.5907 91.285 27.6111 89.5828V85.3628H35.2457V93.4255C35.2457 93.9556 34.9297 94.2206 34.3181 94.2206H33.0032L32.8095 93.5275C33.2682 93.5479 33.6963 93.558 34.0938 93.558C34.3691 93.558 34.5118 93.4255 34.5118 93.1605V89.4808ZM31.7393 87.1568H34.5118V86.0458H31.7393V87.1568ZM29.3031 90.2351H33.4211V92.7732H29.3031V90.2351ZM32.7178 92.131V90.8569H30.0166V92.131H32.7178ZM37.8653 88.7571H40.1791L40.7091 86.2496H37.3454V85.5361H45.6324V86.2496H41.443L40.913 88.7571H44.348V93.1299H46.0197V93.8536H36.9581V93.1299H39.2617L40.0262 89.4706H37.8653V88.7571ZM39.9956 93.1299H43.6039V89.4706H40.7601L39.9956 93.1299Z" fill="white"/>
<path d="M33.6822 108.293C33.0001 108.775 32.2709 109.222 31.4829 109.646L30.8948 108.587C32.9412 107.564 34.6349 106.282 35.9992 104.753H36.7989C38.2691 106.376 39.9744 107.646 41.9033 108.587L41.3152 109.634C40.5272 109.234 39.7863 108.787 39.1041 108.293V109.222H33.6822V108.293ZM38.9395 108.164C37.9986 107.47 37.1518 106.682 36.399 105.812C35.6698 106.658 34.823 107.446 33.8586 108.164H38.9395ZM32.1885 110.469H40.586V111.328C39.8568 113.221 38.3279 114.656 36.0109 115.644L35.2582 114.668C37.1753 113.915 38.5043 112.868 39.257 111.516H32.1885V110.469Z" fill="white"/>
<circle cx="36.3874" cy="127.852" r="2.35224" fill="#D42300"/>
<path d="M63.043 96.3861C63.043 85.1271 72.1701 76 83.4291 76C94.688 76 103.815 85.1272 103.815 96.3861V116.091C103.815 127.349 94.688 136.477 83.4291 136.477C72.1701 136.477 63.043 127.349 63.043 116.091V96.3861Z" fill="white"/>
<path d="M78.0687 86.0458H75.3777V87.1568H78.0687V86.0458ZM78.0687 87.799H75.3777V88.8285H78.0687V87.799ZM78.7822 88.8285H81.5547V87.799H78.7822V88.8285ZM81.5547 89.4808H75.3777V89.5318C75.3574 91.4889 75.021 93.079 74.3584 94.2919L73.7978 93.7925C74.3482 92.6916 74.6337 91.285 74.654 89.5828V85.3628H82.2886V93.4255C82.2886 93.9556 81.9726 94.2206 81.3611 94.2206H80.0462L79.8525 93.5275C80.3112 93.5479 80.7393 93.558 81.1368 93.558C81.412 93.558 81.5547 93.4255 81.5547 93.1605V89.4808ZM78.7822 87.1568H81.5547V86.0458H78.7822V87.1568ZM76.3461 90.2351H80.4641V92.7732H76.3461V90.2351ZM79.7608 92.131V90.8569H77.0596V92.131H79.7608ZM90.2392 89.3789C91.4216 91.0506 92.3186 92.5184 92.9404 93.7619L92.288 94.2104C91.6356 92.8853 90.7387 91.4073 89.6072 89.7764L90.2392 89.3789ZM86.7328 89.4401L87.4463 89.7255C86.7328 91.6621 85.7848 93.1299 84.6126 94.1492L83.9909 93.6192C85.214 92.5897 86.1212 91.1933 86.7328 89.4401ZM84.0011 87.6767H93.0525V88.3902H84.0011V87.6767ZM87.5788 85.0265C88.3943 85.5973 89.0772 86.1783 89.6378 86.7491L89.0976 87.2893C88.6083 86.7287 87.9356 86.1375 87.0692 85.5055L87.5788 85.0265Z" fill="#4C5466"/>
<path d="M80.0359 105.847C80.8356 105.847 81.506 106.07 82.0235 106.541C82.5292 107.011 82.788 107.611 82.788 108.352C82.788 109.081 82.5057 109.74 81.9647 110.34C81.6354 110.681 81.0591 111.128 80.224 111.692C79.3184 112.292 78.7774 112.821 78.601 113.28H82.7997V114.409H77.0132C77.0132 113.574 77.2837 112.845 77.8483 112.21C78.1541 111.845 78.7892 111.339 79.7418 110.681C80.3064 110.281 80.7062 109.963 80.9415 109.716C81.3178 109.293 81.5178 108.834 81.5178 108.34C81.5178 107.87 81.3884 107.517 81.1296 107.282C80.8709 107.046 80.4828 106.929 79.9888 106.929C79.4596 106.929 79.0597 107.105 78.7892 107.47C78.5069 107.823 78.3658 108.328 78.3422 109.011H77.0603C77.072 108.07 77.3425 107.317 77.8718 106.752C78.4128 106.141 79.142 105.847 80.0359 105.847ZM84.5476 106.011H89.6049V107.141H85.5825L85.3356 109.563H85.3708C85.6296 109.293 85.9236 109.105 86.2647 108.987C86.5705 108.858 86.9233 108.799 87.2997 108.799C88.0877 108.799 88.7345 109.058 89.2285 109.575C89.7225 110.093 89.9812 110.798 89.9812 111.704C89.9812 112.574 89.6519 113.28 89.0168 113.833C88.417 114.327 87.6996 114.574 86.8645 114.574C86.1118 114.574 85.4649 114.362 84.9239 113.95C84.3241 113.503 83.9948 112.88 83.936 112.104H85.1944C85.2415 112.574 85.4296 112.939 85.7472 113.174C86.0295 113.386 86.4058 113.492 86.8763 113.492C87.3938 113.492 87.8289 113.327 88.1818 113.009C88.5346 112.68 88.711 112.257 88.711 111.716C88.711 111.128 88.5581 110.669 88.2523 110.34C87.9465 110.01 87.5231 109.846 86.9586 109.846C86.5822 109.846 86.2647 109.904 85.9824 110.046C85.6766 110.187 85.4532 110.41 85.2885 110.716H84.0889L84.5476 106.011Z" fill="#041C43"/>
<circle cx="83.4304" cy="127.852" r="2.35224" fill="white"/>
<path d="M110.09 96.3861C110.09 85.1271 119.217 76 130.476 76C141.735 76 150.862 85.1272 150.862 96.3861V116.091C150.862 127.349 141.735 136.477 130.476 136.477C119.217 136.477 110.09 127.349 110.09 116.091V96.3861Z" fill="white"/>
</g>
<defs>
<clipPath id="clip0_240_28771">
<rect width="120" height="156" rx="12" fill="white"/>
</clipPath>
<clipPath id="clip1_240_28771">
<rect width="10.56" height="10.56" fill="white" transform="translate(16 46.22)"/>
</clipPath>
</defs>
</svg>
