<svg width="120" height="156" viewBox="0 0 120 156" fill="none" xmlns="http://www.w3.org/2000/svg">
<rect width="120" height="156" rx="12" fill="white"/>
<g clip-path="url(#clip0_260_29418)">
<path d="M41 30.668C40.3627 30.4946 39.6922 30.4004 39 30.4004C34.8028 30.4006 31.4004 33.8028 31.4004 38C31.4004 38.3391 31.4247 38.6727 31.4678 39H21.9092C21.4071 39 21 38.5929 21 38.0908V26.5H41V30.668ZM28.2734 20.8184H33.7275V19H36.4551V20.8184H40.0908C40.5929 20.8184 41 21.2255 41 21.7275V25H21V21.7275C21 21.2255 21.4071 20.8184 21.9092 20.8184H25.5459V19H28.2734V20.8184Z" fill="#0044AD"/>
<rect x="24" y="29" width="2" height="2" fill="white"/>
<rect x="24" y="33" width="2" height="2" fill="white"/>
<rect x="28" y="29" width="2" height="2" fill="white"/>
<path d="M38.668 38.376H44.335C44.3347 41.5057 41.7977 44.0427 38.668 44.043C35.538 44.043 33.0002 41.5059 33 38.376C33.0002 35.246 35.538 32.708 38.668 32.708V38.376ZM40.085 32C42.6485 32.3196 44.6803 34.3515 45 36.915H40.085V32Z" fill="#4E97FF"/>
</g>
<g clip-path="url(#clip1_260_29418)">
<path d="M88 18C88.6904 18 89.25 18.5596 89.25 19.25V20.0371C93.04 20.4134 96 23.611 96 27.5V29.7168C91.9252 29.9746 88.7002 33.3602 88.7002 37.5C88.7002 37.8389 88.7237 38.1725 88.7656 38.5H78V36L80 35.3994V27.5C80 23.611 82.96 20.4134 86.75 20.0371V19.25C86.75 18.5596 87.3096 18 88 18Z" fill="#0044AD"/>
<circle cx="96.5" cy="37.5" r="6.5" fill="#4E97FF"/>
<path d="M88.96 39.5C89.0498 39.8395 89.1622 40.1696 89.2949 40.4893C88.9115 41.3776 88.0291 42 87 42C85.6193 42 84.5 40.8807 84.5 39.5H88.96Z" fill="#4E97FF"/>
<path d="M97.1787 34.2119H98.0293V35.6123H96.3887C96.1191 35.6124 95.9004 35.831 95.9004 36.1006C95.9006 36.37 96.1192 36.5888 96.3887 36.5889H96.5664C97.6092 36.5889 98.455 37.4338 98.4551 38.4766C98.455 39.3049 97.9209 40.0072 97.1787 40.2617V41.3145H95.7783V40.3652H94.9258V38.9648H96.5664C96.836 38.9648 97.0546 38.7462 97.0547 38.4766C97.0546 38.207 96.836 37.9883 96.5664 37.9883H96.3887C95.346 37.9882 94.5002 37.1432 94.5 36.1006C94.5 35.2716 95.0352 34.5685 95.7783 34.3145V33.5H97.1787V34.2119Z" fill="white"/>
</g>
<path d="M40 124.1L39.2217 123.216H39.2207C38.7059 122.631 37.8208 122.584 37.2451 123.09V123.091L35.9521 124.229L35.8486 124.329C35.4159 124.796 35.3604 125.491 35.6904 126.02L32.3193 128.988C31.7962 128.559 31.0302 128.564 30.5117 129.019L30.5098 129.02L29.2158 130.158L29.21 130.164C28.6388 130.673 28.579 131.552 29.0889 132.133L29.0898 132.134L29.8525 133H21C20.4477 133 20 132.552 20 132V120.5H40V124.1ZM31.5859 133H31.584L30.0654 131.275L30.0664 131.274L31.5859 133ZM36.7773 125.272C36.7757 125.298 36.7844 125.324 36.8027 125.345L37.5117 126.149H37.5098L36.8018 125.346C36.7836 125.325 36.7758 125.299 36.7773 125.273V125.272ZM27.2734 114.818H32.7275V113H35.4551V114.818H40V119H20V114.818H24.5459V113H27.2734V114.818Z" fill="#0044AD"/>
<path d="M37.1205 133.469C36.6527 132.938 36.7042 132.128 37.2356 131.66C37.767 131.192 38.577 131.244 39.0448 131.775L42.8232 136.067L40.8988 137.761L37.1205 133.469Z" fill="#4E97FF"/>
<rect x="31.2812" y="131.634" width="8.97328" height="5.76854" transform="rotate(-41.3584 31.2812 131.634)" fill="#4E97FF"/>
<rect x="30" y="131.2" width="1.92285" height="7.69138" rx="0.2" transform="rotate(-41.3584 30 131.2)" fill="#4E97FF"/>
<rect x="36.7344" y="125.27" width="1.92285" height="7.69138" rx="0.2" transform="rotate(-41.3584 36.7344 125.27)" fill="#4E97FF"/>
<path d="M22.9374 128.081L22.1016 127.285L25.0508 124.581L27.1583 126.517L29.2598 124.581L30.1016 125.371L27.1583 128.081L25.0508 126.145L22.9374 128.081Z" fill="white"/>
<path d="M79.25 132.75H91.6162C91.6858 133.626 91.979 134.474 92.3701 135.25H78.8496C77.8108 135.25 76.75 134.472 76.75 133.234V114H79.25V132.75ZM93.9004 135.131C93.8792 135.095 93.8586 135.059 93.8379 135.022C93.8586 135.059 93.8792 135.095 93.9004 135.131ZM93.6064 134.594C93.583 134.547 93.5614 134.499 93.5391 134.452C93.5614 134.499 93.583 134.547 93.6064 134.594ZM93.4746 134.313C93.4557 134.271 93.4379 134.229 93.4199 134.187C93.4379 134.229 93.4557 134.271 93.4746 134.313ZM93.3594 134.042C93.3343 133.979 93.3109 133.916 93.2881 133.853C93.3109 133.916 93.3343 133.979 93.3594 134.042ZM86 130H82V120H86V130ZM92 130H88V122H92V130ZM98 126.621C97.9299 126.615 97.8595 126.611 97.7891 126.607L97.5 126.6C96.2361 126.6 95.0103 126.999 94 127.731V118H98V126.621Z" fill="#0044AD"/>
<path d="M97.5 128C98.6857 128 99.8234 128.458 100.666 129.273C101.509 130.089 101.988 131.197 102 132.356C102 135.37 98.0621 138.725 97.8652 138.868C97.7634 138.953 97.6339 139 97.5 139C97.3661 139 97.2366 138.953 97.1348 138.868C96.966 138.725 93.0004 135.37 93 132.356C93.0119 131.197 93.4914 130.089 94.334 129.273C95.1766 128.458 96.3143 128 97.5 128Z" fill="#4E97FF"/>
<circle cx="97.5" cy="131.5" r="1.5" fill="white"/>
<path d="M41 71.5996C41.5523 71.5996 42 72.0473 42 72.5996V82.4629C40.801 81.4034 39.2259 80.7598 37.5 80.7598C33.7445 80.7598 30.7002 83.804 30.7002 87.5596C30.7002 87.5729 30.7011 87.5863 30.7012 87.5996H19C18.4477 87.5996 18 87.1519 18 86.5996V72.5996C18 72.0473 18.4477 71.5996 19 71.5996H41Z" fill="#0044AD"/>
<path d="M20.9403 78.145L20 77.215L23.3179 74.0541L25.6888 76.3175L28.053 74.0541L29 74.9777L25.6888 78.145L23.3179 75.8817L20.9403 78.145Z" fill="white"/>
<rect x="20" y="80.5996" width="9" height="1.5" fill="white"/>
<rect x="20" y="83.5996" width="6" height="1.5" fill="white"/>
<path d="M37.5 82.0596C40.5376 82.0596 43 84.5221 43 87.5596C43 88.8672 42.5423 90.0669 41.7803 91.0108L43.9502 93.1807L42.5352 94.5948L40.2578 92.3174C39.4469 92.7885 38.5053 93.0596 37.5 93.0596C34.4624 93.0596 32 90.5972 32 87.5596C32 84.5221 34.4624 82.0596 37.5 82.0596ZM37.5 84.0596C35.567 84.0596 34 85.6266 34 87.5596C34 89.4926 35.567 91.0596 37.5 91.0596C39.433 91.0596 41 89.4926 41 87.5596C41 85.6266 39.433 84.0596 37.5 84.0596Z" fill="#4E97FF"/>
<path d="M97.1992 75.2002C97.8617 75.2003 98.3992 75.7379 98.3994 76.4004V88.4004H79.1992V76.4004C79.1994 75.7379 79.7369 75.2003 80.3994 75.2002H85.3936C85.3711 75.761 85.5834 76.3291 86.0312 76.7412C86.6886 77.3455 87.6686 77.4363 88.4258 76.9629L91.0752 75.3056C91.1351 75.2681 91.1966 75.2331 91.2588 75.2002H97.1992Z" fill="#4E97FF"/>
<path d="M85.3272 83.8974L84.3242 82.9426L87.8633 79.6974L90.3923 82.0211L92.9141 79.6974L93.9242 80.6456L90.3923 83.8974L87.8633 81.5737L85.3272 83.8974Z" fill="white"/>
<path d="M85.3838 67.8804L80.5107 73.44C80.508 73.4423 80.2862 73.63 80.3213 73.7828C80.3565 73.9117 80.6941 74.2263 80.7002 74.232C80.9722 74.5159 81.351 74.6705 81.7295 74.6705C81.8239 74.6704 81.9183 74.6579 82.001 74.646C82.3085 74.5987 82.5802 74.445 82.7812 74.2203L84.7334 72.1509L86.3066 70.5777H90.1406L90.2695 71.0582C90.5133 71.9667 91.0184 72.7841 91.7217 73.4087C92.2449 73.8735 92.8603 74.2483 93.5557 74.3267C94.5138 74.4346 95.477 74.3058 96.3633 73.9615C96.6514 73.8496 96.919 73.7051 97.1719 73.5386V66.1168C96.1414 66.0015 93.9209 65.7557 93.7012 65.7554L85.3838 67.8804Z" fill="#0044AD"/>
<path d="M86.472 74.3536L90.3111 70.6104C91.1145 69.8271 92.2597 69.5039 93.3541 69.7515L94.4382 69.9969C95.5136 70.2402 96.2205 71.2703 96.0608 72.3613C95.9091 73.398 95.0199 74.1665 93.9722 74.1665H92.6455C91.9618 74.1665 91.2919 74.3588 90.7123 74.7213L88.0625 76.3785C87.5683 76.6877 86.9283 76.6284 86.4993 76.2337C85.9526 75.7308 85.9402 74.8721 86.472 74.3536Z" fill="#0044AD"/>
<path d="M100.801 65.7115H98.1449V73.6791H100.801V65.7115Z" fill="#0044AD"/>
<rect x="74.3984" y="88.8" width="28.8" height="2.4" fill="#0044AD"/>
<defs>
<clipPath id="clip0_260_29418">
<rect width="28" height="28" fill="white" transform="translate(17 16)"/>
</clipPath>
<clipPath id="clip1_260_29418">
<rect width="28" height="28" fill="white" transform="translate(75 16)"/>
</clipPath>
</defs>
</svg>
