<?xml version="1.0" encoding="utf-8"?>
<!-- Generator: Adobe Illustrator 26.2.1, SVG Export Plug-In . SVG Version: 6.00 Build 0)  -->
<svg version="1.1" id="artwork" xmlns="http://www.w3.org/2000/svg" xmlns:xlink="http://www.w3.org/1999/xlink" x="0px" y="0px"
	 viewBox="0 0 176.5 43.1" style="enable-background:new 0 0 176.5 43.1;" xml:space="preserve">
<style type="text/css">
	.st0{fill:#00367B;}
	.st1{fill:#50B848;}
	.st2{fill:url(#SVGID_1_);}
	.st3{fill:url(#SVGID_00000160908703810072872330000004135285240607244721_);}
	.st4{fill:#FFFFFF;}
	.st5{fill:url(#SVGID_00000003783103600941965130000016261717212986550698_);}
</style>
<g>
	<g>
		<g>
			<path class="st0" d="M176.5,11.9h-8c-0.8-1.1-1.2-2-1.3-2.4h7.1V7.7h-3.8c0.8-1.5,1.7-3.6,1.8-3.6h-2.5c-0.4,0.9-1,2.5-1.6,3.6
				H165c0.8-2.2,1.1-3.9,1.1-4.6H164c-0.1,1.5-0.6,3.1-1.2,4.6h-1.4c-0.7-1.8-1.4-3.6-1.4-3.6h-2.4c0,0,0.8,2,1.4,3.6h-3.8v1.9h6.8
				c-0.4,0.8-0.9,1.6-1.5,2.4H153V14h5.8c-1.7,1.8-3.6,3.3-5.8,4v2c1.9-0.5,3.6-1.4,5.1-2.4v0.8h4.3c-0.4,2.8-4.4,5.1-6.2,5.6v1.9
				c3.5-1,7.6-3,8.6-7.5h4.1c-0.2,3.7-0.2,4.9-0.6,5.1c-0.1,0.1-0.3,0.1-0.5,0.1c-0.6,0-1.8,0-2.6-0.1l0.3,1.8c0.8,0,2.3,0.1,2.9,0
				c0.6,0,1.1-0.1,1.5-0.4c0.7-0.5,0.9-2.3,1.1-6.8c0-0.1,0-0.5,0-0.5v0c0-0.2,0-0.4-0.1-0.5c1.5,1.1,3.4,2.1,5.6,2.7v-2
				c-2.7-0.9-4.8-2.5-6.2-4h6.3L176.5,11.9L176.5,11.9z M164.2,9.5h0.7c0.1,0.4,0.5,1.3,1.1,2.4H163
				C163.5,11.1,163.9,10.3,164.2,9.5z M169.6,16.5h-10.2c0.9-0.8,1.6-1.6,2.2-2.5h5.8c0.6,0.8,1.4,1.7,2.4,2.5
				C169.8,16.5,169.7,16.5,169.6,16.5z"/>
			<path class="st0" d="M70.5,10.3H61v1.8h9.5V10.3z M70.8,21.4l-2.3,0.4l0.9-2.6h-1.9l-1,2.9l-1.8,0.3c-0.1-1-0.3-2-0.7-3.2h-2
				c0.5,1,0.8,2.4,0.9,3.5c-1.1,0.2-1.9,0.3-2.7,0.4v2.2c2.6-0.5,7.6-1.7,10.6-2.3L70.8,21.4L70.8,21.4z M62.3,9.2h8.1V3.8h-2v3.7
				h-1.7V3h-2v4.4H63V3.8h-2v4.1C61,8.6,61.6,9.2,62.3,9.2z M62.3,18.5h8.1v-4.1c0-0.8-0.6-1.4-1.4-1.4H61v4.1
				C61,17.9,61.6,18.5,62.3,18.5z M63.1,14.7h5.3v2.2h-5.3V14.7z M80.9,23.6c-0.5,0-0.7-0.3-0.7-0.8V5.1c0-0.8-0.6-1.4-1.4-1.4h-5.7
				v11.1c0,4-0.3,7.9-2.9,10.7h2.3c2.6-3,2.7-6.3,2.7-10.7V5.6h2.6l0,17.6c0,1.3,0.4,2.1,1.6,2.3c0.7,0.1,2.4,0.1,3.6,0l0.4-1.9
				C82.5,23.6,81.4,23.6,80.9,23.6z"/>
			<g>
				<path class="st0" d="M114.5,14.8h-5.9V7.2h3.8V5.3h-3.8V3h-2.2v2.3H99V3h-2.2v2.3H93v1.8h3.8v7.6h-5.9v1.9h5.4
					c-0.8,1.5-3.2,3.2-5.4,3.9v2.1c2.8-0.9,4.6-1.9,5.7-2.9v1.5h4.9v2.4h-8.3v1.9h19v-1.9h-8.3v-2.4h4.9v-1.5c1.1,1,2.9,2.1,5.7,2.9
					v-2.1c-2.3-0.7-4.6-2.4-5.4-3.9h5.4L114.5,14.8L114.5,14.8z M99.1,7.2h7.3v1.3h-7.3V7.2z M99.1,10.3h7.3v1.3h-7.3V10.3z
					 M99.1,13.5h7.3v1.3h-7.3V13.5z M103.9,19.3v-1.9h-2.3v1.9H97c1.2-1.1,1.7-2.1,2-2.7h7.5c0.2,0.6,0.8,1.6,2,2.7H103.9z"/>
			</g>
			<path class="st0" d="M123.2,9.3h8V7.4h-7.9C123.2,7.4,123.2,9.3,123.2,9.3z M130.2,10.9h-6.1v1.9h6.1V10.9z M124.1,16.4h6.1v-1.9
				h-6.1V16.4z M130,3.9h-5.6v1.9h5.6V3.9z M129.3,17.9h-5.6v6.3c0,0.8,0.6,1.4,1.4,1.4h5.6v-6.3C130.6,18.5,130,17.9,129.3,17.9z
				 M128.6,23.6h-2.8v-3.9h2.8V23.6z M143,9.9c1-0.8,1.8-1.4,2.5-2.1l-1.2-1.1c-0.5,0.6-1.1,1.2-2,1.9c-0.3-0.6-0.5-1.1-0.8-1.7
				c1.1-0.8,2-1.6,2.7-2.3L143,3.5c-0.5,0.6-1.1,1.2-2,2c-0.2-0.6-0.3-1-0.4-1.5h-1.8c0.6,2.8,1.4,4.8,2.5,6.6h-5.8
				c1-1.6,1.8-3.4,2.3-5.4c0,0,0-0.1,0-0.1c0-0.2,0.1-0.5-0.2-0.8c0,0-0.2-0.2-0.6-0.2h-4.9v1.7h3.7c-0.3,1-0.6,1.8-1,2.6
				c-0.6-0.6-1.2-1.2-2-1.7l-1,1.1c0.9,0.7,1.6,1.4,2.1,2c-0.4,0.7-1.4,1.9-2.5,2.5v1.9c0.9-0.2,2.5-1.4,3.5-2.6v0.9h7v-0.9
				c0.9,1.1,2.5,2.2,3.5,2.6v-1.9C144.3,11.5,143.3,10.5,143,9.9z M142.5,20.2h-2.1c-0.6,1.2-1.1,3.4-1.1,3.4h-2
				c0,0-0.5-2.2-1.1-3.4h-2.1c0.5,1,0.9,2.5,1.1,3.4h-3.6v1.8h13.4v-1.8h-3.6C141.6,22.7,142,21.3,142.5,20.2z M143.5,19.5v-4.4
				c0-0.8-0.6-1.4-1.4-1.4h-8.9v4.4c0,0.8,0.6,1.4,1.4,1.4L143.5,19.5L143.5,19.5z M135.2,15.6h6.4v2h-6.4V15.6z"/>
		</g>
		<g>
			<path class="st0" d="M70.9,39.7c-0.3,0.1-0.6,0.2-1,0.2c-1.2,0-2.5-1-2.5-2.7c0-1.7,1.1-2.7,2.6-2.7c0.6,0,1.2,0.2,1.6,0.4l0,0
				l0.5-0.9l0,0c-0.5-0.3-1.3-0.6-2.1-0.6c-2.6,0-4.2,1.8-4.2,3.8c0,2.2,1.6,3.9,4.2,3.9c0.8,0,1.7-0.2,2.5-0.5l0,0v-3.1h-1.5V39.7z
				 M73.7,33.5v7.4h1.6v-7.4C75.2,33.5,73.7,33.5,73.7,33.5z M65.9,33.5h-1.6l-2.5,3.2v-3.2h-1.5v7.4h1.5v-3.7l2.7,3.7h1.9l-3.2-4.1
				L65.9,33.5z"/>
			<path class="st0" d="M83,36.6c-0.9-0.7-1.4-1-1.4-1.5c0-0.4,0.3-0.7,0.9-0.7c0.4,0,0.8,0.2,1.2,0.4l0,0l0,0l0.5-0.8l0,0
				c-0.3-0.3-1-0.7-1.9-0.7c-1.3,0-2.4,0.8-2.4,1.8c0,1,0.6,1.5,1.3,2c0.6,0.5,1.6,1,1.6,1.8c0,0.7-0.5,1-1.1,1
				c-0.7,0-1.1-0.3-1.5-0.6l0,0l-0.6,0.9l0,0c0.6,0.5,1.4,0.7,2.2,0.8c1.7,0,2.6-1.1,2.6-2C84.5,38,84,37.4,83,36.6z M94.2,34.4
				c0.6,0,1.2,0.2,1.5,0.4l0,0l0,0l0.5-0.9l0,0c-0.5-0.3-1.2-0.6-2-0.6c-2.6,0-4.2,1.8-4.2,3.8c0,2.2,1.6,3.9,4.2,3.9
				c0.7,0,1.5-0.2,2-0.5l0,0l-0.4-1l0,0c-0.4,0.2-0.9,0.4-1.5,0.4c-1.4,0-2.6-1-2.6-2.7C91.6,35.5,92.7,34.5,94.2,34.4z M101.5,37.8
				c0,1.2-0.4,2.1-1.5,2.1c-1.2,0-1.6-0.8-1.6-2.2v-4.2h-1.6V38c0,1,0.3,1.8,0.8,2.3c0.5,0.5,1.3,0.8,2.3,0.8c1.8,0,3-1.1,3-2.9
				v-4.6h-1.4V37.8z M110.1,40.9h1.6v-7.4h-1.6V40.9z M118.7,40.9h1.6v-7.4h-1.6V40.9z M129.7,36.6c-0.9-0.7-1.4-1-1.4-1.5
				c0-0.4,0.3-0.7,0.9-0.7c0.4,0,0.8,0.2,1.2,0.4l0,0l0,0L131,34l0,0c-0.4-0.3-1-0.7-1.9-0.7c-1.3,0-2.4,0.8-2.4,1.8
				c0,1,0.6,1.5,1.3,2c0.6,0.5,1.6,1,1.6,1.8c0,0.7-0.5,1-1.1,1c-0.7,0-1.1-0.3-1.5-0.6l0,0l-0.6,0.9l0,0c0.6,0.5,1.4,0.7,2.2,0.8
				c1.7,0,2.6-1.1,2.6-2C131.2,38,130.7,37.4,129.7,36.6z M109.1,35.4c0-1.3-1-2-2.4-2h-2.6v7.4h1.6v-2.9h0.8l1.4,2.9h1.8l-1.8-3.3
				C108.5,37.1,109.1,36.5,109.1,35.4z M106.2,36.9h-0.6v-2.4h0.7c0.6,0,1.1,0.3,1.1,1.1C107.5,36.1,107.2,36.9,106.2,36.9z
				 M112.2,34.5h2.3v6.4h1.6v-6.4h1.7l0.6-1h-6.1L112.2,34.5L112.2,34.5z M89.4,34.5l0.6-1h-4.6v7.4h4.5v-1h-2.9v-2.3h2.4v-1h-2.4
				v-2H89.4z M125.5,34.5l0.6-1h-4.6v7.4h4.5v-1H123v-2.3h2.4v-1H123v-2H125.5z"/>
		</g>
	</g>
	<g>
		<polygon class="st0" points="0,21.5 21.5,0 0,0 		"/>
		<polygon class="st0" points="21.5,43.1 0,21.5 0,43.1 		"/>
		<polygon class="st0" points="21.5,43.1 43.1,21.5 43.1,43.1 		"/>
		<polygon class="st1" points="43.1,21.5 21.5,0 43.1,0 		"/>
		
			<linearGradient id="SVGID_1_" gradientUnits="userSpaceOnUse" x1="10.8105" y1="35.1894" x2="21.8159" y2="24.1839" gradientTransform="matrix(1 0 0 -1 0 46)">
			<stop  offset="0" style="stop-color:#EF4622"/>
			<stop  offset="0.2" style="stop-color:#F15A21"/>
			<stop  offset="0.52" style="stop-color:#F6851E"/>
			<stop  offset="1" style="stop-color:#FFE300"/>
		</linearGradient>
		<polygon class="st2" points="21.5,0 0,21.5 21.5,21.5 		"/>
		
			<linearGradient id="SVGID_00000129926794960710372050000003206184536506359215_" gradientUnits="userSpaceOnUse" x1="-3270.7385" y1="-3790.2322" x2="-3259.7327" y2="-3801.238" gradientTransform="matrix(0 -1 -1 0 -3779.4224 -3238.4634)">
			<stop  offset="0" style="stop-color:#EF4622"/>
			<stop  offset="0.2" style="stop-color:#F15A21"/>
			<stop  offset="0.52" style="stop-color:#F6851E"/>
			<stop  offset="1" style="stop-color:#FFE300"/>
		</linearGradient>
		<polygon style="fill:url(#SVGID_00000129926794960710372050000003206184536506359215_);" points="0,21.5 21.5,43.1 21.5,21.5 		
			"/>
		<polygon class="st4" points="43.1,21.5 21.5,43.1 21.5,21.5 		"/>
		
			<linearGradient id="SVGID_00000031173639668825700550000005765934217755976344_" gradientUnits="userSpaceOnUse" x1="32.3955" y1="35.3105" x2="21.5428" y2="24.4578" gradientTransform="matrix(1 0 0 -1 0 46)">
			<stop  offset="0" style="stop-color:#073C87"/>
			<stop  offset="0.2" style="stop-color:#00408A"/>
			<stop  offset="0.52" style="stop-color:#0063AC"/>
			<stop  offset="1" style="stop-color:#00AEEF"/>
		</linearGradient>
		<polygon style="fill:url(#SVGID_00000031173639668825700550000005765934217755976344_);" points="43.1,21.5 21.5,0 21.5,21.5 		
			"/>
	</g>
</g>
</svg>
