<?xml version="1.0" encoding="UTF-8"?>
<svg id="_圖層_1" xmlns="http://www.w3.org/2000/svg" version="1.1" viewBox="0 0 60 60">
  <!-- Generator: Adobe Illustrator 30.0.0, SVG Export Plug-In . SVG Version: 2.1.1 Build 123)  -->
  <defs>
    <style>
      .st0, .st1 {
        isolation: isolate;
      }

      .st2 {
        fill: #fff;
      }

      .st3 {
        fill: #04327a;
      }

      .st1 {
        font-family: SourceHanSansTC-Regular-B5pc-H, 'Source Han Sans TC';
        font-size: 15px;
      }
    </style>
  </defs>
  <circle class="st3" cx="30" cy="18.04" r="18"/>
  <path class="st2" d="M22,18.04c0,4.41,3.6,8,8.02,8s8.02-3.59,8.02-8-3.6-8-8.02-8-8.02,3.59-8.02,8h0ZM36.57,18.04c0,3.61-2.94,6.55-6.56,6.55s-6.56-2.94-6.56-6.55,2.94-6.55,6.56-6.55,6.56,2.94,6.56,6.55Z"/>
  <path class="st2" d="M29.14,13.68v.85c-.85.3-1.46,1.11-1.46,2.06,0,1.2.98,2.18,2.19,2.18.4,0,.73.33.73.73s-.33.73-.73.73c-.31,0-.65-.2-.95-.55-.26-.31-.72-.35-1.03-.09s-.35.72-.09,1.02c.39.46.85.78,1.33.95v.85c0,.4.33.73.73.73s.73-.33.73-.73v-.85c.85-.3,1.46-1.11,1.46-2.06,0-1.2-.98-2.18-2.19-2.18-.4,0-.73-.33-.73-.73s.33-.73.73-.73c.26,0,.53.13.79.38.29.28.75.27,1.03-.02.28-.29.27-.75-.02-1.03-.37-.36-.74-.56-1.07-.67v-.85c0-.4-.33-.73-.73-.73s-.73.33-.73.73h0Z"/>
  <g class="st0">
    <text class="st1" transform="translate(15.67 58.84)"><tspan x="0" y="0">開戶</tspan></text>
  </g>
</svg>